<svg id="Capa_1" data-name="Capa 1" xmlns="http://www.w3.org/2000/svg" viewBox="0 0 101.64 91.74"><defs><style>.cls-1,.cls-2{fill:none;stroke:#566567;}.cls-1{stroke-miterlimit:10;stroke-width:5.59px;}.cls-2{stroke-linecap:round;stroke-linejoin:round;stroke-width:2px;}.cls-3{fill:#566567;}</style></defs><title>iconosweb_Hover</title><rect class="cls-1" x="8.67" y="8.67" width="84.3" height="74.4"/><rect class="cls-2" x="33.12" y="44.63" width="3.32" height="24.59"/><path class="cls-2" d="M53.46,49.28V42.15l-3.32-1.46v8.59a3.57,3.57,0,0,1,3.32,0Z"/><path class="cls-2" d="M48.12,52.84l-11.67,6.5V64l13.4-8.31A3.67,3.67,0,0,1,48.12,52.84Z"/><polygon class="cls-2" points="65.16 47.27 44.72 38.31 51.42 22.52 78 33.8 69.45 37.15 65.16 47.27"/><line class="cls-2" x1="69.46" y1="37.15" x2="49.02" y2="28.18"/><circle class="cls-3" cx="51.8" cy="34.04" r="1.2"/><circle class="cls-3" cx="56.71" cy="36.22" r="1.2"/><circle class="cls-3" cx="61.36" cy="38.24" r="1.2"/><polyline class="cls-2" points="69.45 37.15 75.83 40.17 73.44 45.99 67.08 43.19"/><polyline class="cls-2" points="46.03 35.23 42.43 33.57 47.01 22.79 50.6 24.45"/><line class="cls-2" x1="65.16" y1="47.28" x2="73.44" y2="45.99"/><line class="cls-2" x1="78" y1="33.8" x2="75.83" y2="40.17"/><rect class="cls-2" x="23.73" y="35.23" width="9.4" height="33.99"/><circle class="cls-2" cx="51.8" cy="52.58" r="3.71"/></svg>