<svg id="Capa_1" data-name="Capa 1" xmlns="http://www.w3.org/2000/svg" viewBox="0 0 101.64 91.74"><defs><style>.cls-1,.cls-2{fill:none;stroke:#595959;}.cls-1{stroke-miterlimit:10;stroke-width:5.59px;}.cls-2{stroke-linecap:round;stroke-linejoin:round;stroke-width:2.52px;}</style></defs><title>asas</title><rect class="cls-1" x="8.67" y="8.67" width="84.3" height="74.4"/><rect class="cls-2" x="29.81" y="61.66" width="44.9" height="5.01"/><path class="cls-2" d="M63,57.08c-.36.4-.59.4-1,0-1.24-1.27-2.49-2.53-3.77-3.76-.38-.37-.35-.6,0-1a7.81,7.81,0,0,0,1.27-8.16,7.17,7.17,0,0,0-1.34-2.13c-.27-.32-.27-.53,0-.82.93-.91,1.85-1.84,2.77-2.77a14.5,14.5,0,0,0-17.37,0c.92.94,1.85,1.87,2.8,2.79.42.41.12.64-.11.93a7.85,7.85,0,0,0-1.18,8.25,6.72,6.72,0,0,0,1.29,2c.26.31.28.52,0,.82-1.31,1.28-2.6,2.56-3.88,3.87-.38.4-.64.3-1-.06a14.71,14.71,0,0,1-3.73-8.47c-.05.5-.08,1-.08,1.54V61.66H66.82V50.15a13.56,13.56,0,0,0-.07-1.43A14.45,14.45,0,0,1,63,57.08Z"/><path class="cls-2" d="M52.24,43.93a3.34,3.34,0,1,1-3.31,3.37A3.33,3.33,0,0,1,52.24,43.93Z"/><line class="cls-2" x1="52.26" y1="29.51" x2="52.26" y2="20.79"/><line class="cls-2" x1="58.21" y1="30.35" x2="60.66" y2="21.98"/><line class="cls-2" x1="63.68" y1="32.83" x2="68.39" y2="25.5"/><line class="cls-2" x1="68.22" y1="36.75" x2="74.81" y2="31.04"/><line class="cls-2" x1="71.48" y1="41.79" x2="79.41" y2="38.18"/><line class="cls-2" x1="73.18" y1="47.55" x2="81.81" y2="46.31"/><line class="cls-2" x1="73.2" y1="53.56" x2="81.82" y2="54.8"/><line class="cls-2" x1="31.45" y1="53.62" x2="22.82" y2="54.85"/><line class="cls-2" x1="31.44" y1="47.61" x2="22.81" y2="46.36"/><line class="cls-2" x1="33.13" y1="41.85" x2="25.2" y2="38.22"/><line class="cls-2" x1="36.37" y1="36.8" x2="29.79" y2="31.08"/><line class="cls-2" x1="40.9" y1="32.86" x2="36.2" y2="25.52"/><line class="cls-2" x1="46.36" y1="30.36" x2="43.92" y2="22"/><path class="cls-2" d="M37.7,47.17a14.69,14.69,0,0,1,3.88-9.78c.31-.34.54-.36.87,0,1.3,1.31,2.6,2.63,3.93,3.91.42.41.12.64-.11.93a7.85,7.85,0,0,0-1.18,8.25,6.72,6.72,0,0,0,1.29,2c.26.31.28.52,0,.82-1.31,1.28-2.6,2.56-3.88,3.87-.38.4-.64.3-1-.06A14.83,14.83,0,0,1,37.7,47.17Z"/><path class="cls-2" d="M66.82,47.75A14.37,14.37,0,0,1,63,57.08c-.36.4-.59.4-1,0-1.24-1.27-2.49-2.53-3.77-3.76-.38-.37-.35-.6,0-1a7.81,7.81,0,0,0,1.27-8.16,7.17,7.17,0,0,0-1.34-2.13.5.5,0,0,1,0-.82c1.31-1.28,2.6-2.56,3.87-3.87.4-.4.64-.28,1,.08A15,15,0,0,1,66.82,47.75Z"/></svg>