<svg id="Capa_1" data-name="Capa 1" xmlns="http://www.w3.org/2000/svg" viewBox="0 0 101.64 91.74"><defs><style>.cls-1,.cls-2{fill:none;stroke:#566567;}.cls-1{stroke-miterlimit:10;stroke-width:5.59px;}.cls-2{stroke-linecap:round;stroke-linejoin:round;stroke-width:2px;}</style></defs><title>iconosweb_Hover</title><rect class="cls-1" x="8.67" y="8.67" width="84.3" height="74.4"/><polygon class="cls-2" points="24.59 50.83 24.59 61.84 31.7 61.84 69.94 61.84 77.04 61.84 77.04 50.83 24.59 50.83"/><polyline class="cls-2" points="28.15 43.08 28.15 50.49 34.29 50.49 67.35 50.49 73.49 50.49 73.49 43.08"/><rect class="cls-2" x="24.6" y="61.84" width="3.55" height="5.13"/><rect class="cls-2" x="73.49" y="61.84" width="3.55" height="5.13"/><circle class="cls-2" cx="75.27" cy="25.39" r="2.54"/><path class="cls-2" d="M26.37,30.58h0a1.78,1.78,0,0,1,1.78,1.78V50.83a0,0,0,0,1,0,0H24.6a0,0,0,0,1,0,0V32.35A1.78,1.78,0,0,1,26.37,30.58Z"/><path class="cls-2" d="M75.27,30.58h0A1.78,1.78,0,0,1,77,32.35V50.83a0,0,0,0,1,0,0H73.49a0,0,0,0,1,0,0V32.35A1.78,1.78,0,0,1,75.27,30.58Z"/><path class="cls-2" d="M73.49,43.08c0-8-11.27-14.47-22.67-14.47S28.15,35.09,28.15,43.08"/><ellipse class="cls-2" cx="26.37" cy="25.39" rx="2.52" ry="2.67"/><path class="cls-2" d="M50.82,50.83s-.06-7.75-6.43-7.75H28.15v7.41Z"/><path class="cls-2" d="M50.82,50.83s0-7.75,6.43-7.75H73.49v7.41Z"/><path class="cls-2" d="M60.49,43.08c0-3.07-4.33-5.56-9.67-5.56S41.15,40,41.15,43.08"/></svg>