<svg id="Capa_1" data-name="Capa 1" xmlns="http://www.w3.org/2000/svg" viewBox="0 0 101.64 91.74"><defs><style>.cls-1,.cls-2,.cls-3{fill:none;stroke:#595959;}.cls-1{stroke-miterlimit:10;stroke-width:5.59px;}.cls-2,.cls-3{stroke-linecap:round;stroke-linejoin:round;}.cls-2{stroke-width:2.52px;}.cls-3{stroke-width:1.26px;}</style></defs><title>sssb</title><rect class="cls-1" x="8.67" y="8.67" width="84.3" height="74.4"/><path class="cls-2" d="M67.18,30.58H34.46a6.49,6.49,0,0,0-6.07,4.17l-8.76,23H82l-8.76-23A6.5,6.5,0,0,0,67.18,30.58Z"/><path class="cls-2" d="M19.63,57.74H82a0,0,0,0,1,0,0v1.52a5.93,5.93,0,0,1-5.93,5.93H25.56a5.93,5.93,0,0,1-5.93-5.93V57.74A0,0,0,0,1,19.63,57.74Z"/><line class="cls-3" x1="36.04" y1="48.05" x2="37.57" y2="49.58"/><line class="cls-3" x1="37.57" y1="48.05" x2="36.04" y2="49.58"/><line class="cls-3" x1="63.69" y1="49.58" x2="65.21" y2="48.05"/><line class="cls-3" x1="65.21" y1="49.58" x2="63.69" y2="48.05"/><line class="cls-3" x1="38.04" y1="36.75" x2="39.57" y2="38.28"/><line class="cls-3" x1="39.57" y1="36.75" x2="38.04" y2="38.28"/><line class="cls-3" x1="61.69" y1="38.28" x2="63.21" y2="36.75"/><line class="cls-3" x1="63.21" y1="38.28" x2="61.69" y2="36.75"/></svg>