<svg id="Capa_1" data-name="Capa 1" xmlns="http://www.w3.org/2000/svg" viewBox="0 0 101.64 91.74"><defs><style>.cls-1,.cls-2,.cls-3{fill:none;stroke:#595959;}.cls-1{stroke-miterlimit:10;stroke-width:5.59px;}.cls-2,.cls-3{stroke-linecap:round;stroke-linejoin:round;}.cls-2{stroke-width:2.52px;}.cls-3{stroke-width:1.26px;}</style></defs><title>sssb</title><rect class="cls-1" x="8.67" y="8.67" width="84.3" height="74.4"/><rect class="cls-2" x="33.77" y="64.95" width="4.22" height="5.13"/><rect class="cls-2" x="63.7" y="64.95" width="4.22" height="5.13"/><rect class="cls-2" x="33.77" y="23.49" width="34.1" height="4.28"/><rect class="cls-2" x="37.93" y="31.76" width="25.77" height="12.59"/><rect class="cls-2" x="37.93" y="47.92" width="25.77" height="12.59"/><rect class="cls-2" x="33.77" y="27.76" width="34.1" height="37.19"/><line class="cls-3" x1="50.06" y1="53.45" x2="51.58" y2="54.98"/><line class="cls-3" x1="51.58" y1="53.45" x2="50.06" y2="54.98"/><line class="cls-3" x1="50.06" y1="37.29" x2="51.58" y2="38.82"/><line class="cls-3" x1="51.58" y1="37.29" x2="50.06" y2="38.82"/><line class="cls-3" x1="53.53" y1="38.06" x2="59.26" y2="38.06"/><line class="cls-3" x1="42.48" y1="38.06" x2="48.22" y2="38.06"/><line class="cls-3" x1="53.53" y1="54.21" x2="59.26" y2="54.21"/><line class="cls-3" x1="42.48" y1="54.21" x2="48.22" y2="54.21"/></svg>