<svg id="Capa_1" data-name="Capa 1" xmlns="http://www.w3.org/2000/svg" viewBox="0 0 101.64 91.74"><defs><style>.cls-1,.cls-2{fill:none;stroke:#566567;}.cls-1{stroke-miterlimit:10;stroke-width:5.59px;}.cls-2{stroke-linecap:round;stroke-linejoin:round;stroke-width:2px;}</style></defs><title>iconosweb_Hover</title><rect class="cls-1" x="8.67" y="8.67" width="84.3" height="74.4"/><path class="cls-2" d="M71.44,41.6H33.59A2.55,2.55,0,0,0,31,44.14h0a2.55,2.55,0,0,0,2.55,2.55H72"/><path class="cls-2" d="M77.13,49.36a2.58,2.58,0,0,1-2.61,2.42H29a4.54,4.54,0,0,1-4.54-4.54V41.6a5.09,5.09,0,0,1,5.09-5.09H72a5.09,5.09,0,1,1,0,10.18h2.55A2.54,2.54,0,0,1,77.13,49.36Z"/><path class="cls-2" d="M71.44,57.18H33.59A2.55,2.55,0,0,0,31,59.72h0a2.55,2.55,0,0,0,2.55,2.55H72"/><path class="cls-2" d="M77.13,64.94a2.58,2.58,0,0,1-2.61,2.42H29a4.54,4.54,0,0,1-4.54-4.54V57.18a5.09,5.09,0,0,1,5.09-5.09H72a5.09,5.09,0,1,1,0,10.18h2.55A2.54,2.54,0,0,1,77.13,64.94Z"/><path class="cls-2" d="M77.14,38.58v3A5.09,5.09,0,0,0,72,36.51H29.59A5.09,5.09,0,0,0,24.5,41.6v-3A9.36,9.36,0,0,1,27.24,32L33.5,25.7a4.52,4.52,0,0,1,3.19-1.32H65a4.54,4.54,0,0,1,3.19,1.32L74.39,32A9.33,9.33,0,0,1,77.14,38.58Z"/></svg>