<svg id="Capa_1" data-name="Capa 1" xmlns="http://www.w3.org/2000/svg" viewBox="0 0 101.64 91.74"><defs><style>.cls-1,.cls-2{fill:none;stroke:#595959;}.cls-1{stroke-miterlimit:10;stroke-width:5.59px;}.cls-2{stroke-linecap:round;stroke-linejoin:round;stroke-width:2.52px;}</style></defs><title>sssb</title><rect class="cls-1" x="8.67" y="8.67" width="84.3" height="74.4"/><path class="cls-2" d="M79.88,47.78a2,2,0,0,0-2.83.15c-.46.52-1.11,1.06-1.43.9a.71.71,0,0,1-.29-.63V39.62a2,2,0,0,0-2-2H53.55V35.78a7.2,7.2,0,1,0-9.2-6.91,2,2,0,0,0,4,0,3.2,3.2,0,1,1,3.2,3.19,2,2,0,0,0-2,2v3.56H29.88a2,2,0,0,0-2,2V48.2a4.71,4.71,0,0,0,2.49,4.21,4.37,4.37,0,0,0,1.93.45,5.75,5.75,0,0,0,4.28-2.26,2.19,2.19,0,0,0,.35-.56,4.54,4.54,0,0,0,2.13,2.37,4.37,4.37,0,0,0,1.93.45,5.75,5.75,0,0,0,4.28-2.26,2.19,2.19,0,0,0,.35-.56,4.54,4.54,0,0,0,2.13,2.37,4.37,4.37,0,0,0,1.93.45A5.75,5.75,0,0,0,54,50.6a2.19,2.19,0,0,0,.35-.56,4.54,4.54,0,0,0,2.13,2.37,4.37,4.37,0,0,0,1.93.45,5.75,5.75,0,0,0,4.28-2.26A2,2,0,0,0,63,50a4.54,4.54,0,0,0,2.13,2.37,4.37,4.37,0,0,0,1.93.45,5.75,5.75,0,0,0,4.28-2.26,2,2,0,0,0,.35-.56,4.54,4.54,0,0,0,2.13,2.37,4.37,4.37,0,0,0,1.93.45A5.75,5.75,0,0,0,80,50.6,2,2,0,0,0,79.88,47.78Zm-46.28.15c-.46.52-1.11,1.06-1.43.9a.71.71,0,0,1-.29-.63V41.62h4.69v6.31l-.14-.15A2,2,0,0,0,33.6,47.93Zm8.69,0c-.46.52-1.11,1.06-1.43.9a.71.71,0,0,1-.29-.63V41.62h4.69v6.31l-.14-.15A2,2,0,0,0,42.29,47.93Zm8.69,0c-.46.52-1.11,1.06-1.43.9a.71.71,0,0,1-.29-.63V41.62H54v6.31l-.14-.15A2,2,0,0,0,51,47.93Zm8.69,0c-.46.52-1.11,1.06-1.43.9A.71.71,0,0,1,58,48.2V41.62h4.69v6.31l-.14-.15A2,2,0,0,0,59.67,47.93Zm8.69,0c-.46.52-1.11,1.06-1.43.9a.71.71,0,0,1-.29-.63V41.62h4.69v6.31l-.14-.15A2,2,0,0,0,68.36,47.93Z"/><polyline class="cls-2" points="27.88 48.2 27.88 60.54 75.14 60.54 75.14 52.86"/><polyline class="cls-2" points="27.88 60.54 27.88 64.22 75.14 64.22 75.14 60.54"/></svg>