<svg id="Capa_1" data-name="Capa 1" xmlns="http://www.w3.org/2000/svg" viewBox="0 0 101.64 91.74"><defs><style>.cls-1,.cls-2{fill:none;stroke:#566567;}.cls-1{stroke-miterlimit:10;stroke-width:5.59px;}.cls-2{stroke-linecap:round;stroke-linejoin:round;stroke-width:2px;}</style></defs><title>iconosweb_Hover</title><rect class="cls-1" x="8.67" y="8.67" width="84.3" height="74.4"/><rect class="cls-2" x="34.52" y="38.16" width="32.6" height="6.18" rx="3.09"/><rect class="cls-2" x="29.6" y="53.3" width="4.92" height="13.54"/><rect class="cls-2" x="29.6" y="38.16" width="4.92" height="12.07"/><rect class="cls-2" x="21.01" y="30.67" width="3.2" height="19.56"/><rect class="cls-2" x="30.47" y="40.77" width="3.07" height="21.99" transform="translate(-19.76 83.77) rotate(-90)"/><rect class="cls-2" x="67.12" y="53.3" width="4.92" height="13.54"/><rect class="cls-2" x="67.12" y="38.16" width="4.92" height="12.07"/><rect class="cls-2" x="21.01" y="53.3" width="3.2" height="13.89"/><rect class="cls-2" x="39.8" y="53.3" width="3.2" height="13.89"/><rect class="cls-2" x="77.41" y="30.67" width="3.2" height="19.56" transform="translate(158.02 80.9) rotate(-180)"/><rect class="cls-2" x="68.08" y="40.77" width="3.07" height="21.99" transform="translate(17.85 121.38) rotate(-90)"/><rect class="cls-2" x="77.41" y="53.3" width="3.2" height="13.89" transform="translate(158.02 120.49) rotate(-180)"/><rect class="cls-2" x="58.62" y="53.3" width="3.2" height="13.89" transform="translate(120.45 120.49) rotate(-180)"/><path class="cls-2" d="M71.69,32H39.92l-.37,2h-4l-.38-2H30a3.09,3.09,0,0,0,0,6.18H71.69a3.09,3.09,0,1,0,0-6.18Z"/><polygon class="cls-2" points="39.55 33.95 35.51 33.95 34.52 28.75 40.54 28.75 39.55 33.95"/></svg>