<svg id="Capa_1" data-name="Capa 1" xmlns="http://www.w3.org/2000/svg" viewBox="0 0 101.64 91.74"><defs><style>.cls-1,.cls-2{fill:none;stroke:#566567;}.cls-1{stroke-miterlimit:10;stroke-width:5.59px;}.cls-2{stroke-linecap:round;stroke-linejoin:round;stroke-width:2px;}</style></defs><title>iconosweb_Hover</title><rect class="cls-1" x="8.67" y="8.67" width="84.3" height="74.4"/><ellipse class="cls-2" cx="50.21" cy="34.39" rx="28.05" ry="5.65"/><path class="cls-2" d="M77.45,35.72c-1.13,1-3.45,1.8-6.63,2.49A102.18,102.18,0,0,1,50.21,40,102.25,102.25,0,0,1,29.6,38.21c-3.18-.69-5.49-1.54-6.63-2.49a1.85,1.85,0,0,1-.81-1.33v2.66a1.63,1.63,0,0,0,.6,1.16c2.67,2.56,13.94,4.48,27.45,4.48S75,40.77,77.66,38.21a1.63,1.63,0,0,0,.6-1.16V34.39A1.85,1.85,0,0,1,77.45,35.72Z"/><path class="cls-2" d="M53.39,56.75l.19.45c3.84.39,6.61,1.48,6.61,2.77,0,1.61-4.34,2.92-9.71,2.92S40.77,61.58,40.77,60c0-1.22,2.5-2.27,6-2.7.08-.17.15-.33.22-.5C39,57.25,33,59.38,33,61.94c0,2.91,7.84,5.26,17.51,5.26S68,64.85,68,61.94C68,59.33,61.67,57.16,53.39,56.75Z"/><path class="cls-2" d="M50.21,62.61c-2.79,0-4.72-2.57-3.6-4.88.07-.15.13-.31.2-.46-3.54.43-6,1.48-6,2.7,0,1.61,4.35,2.92,9.71,2.92s9.71-1.31,9.71-2.92c0-1.29-2.77-2.38-6.61-2.77.08.18.15.36.24.53C54.93,60,53,62.61,50.21,62.61Z"/><path class="cls-2" d="M47.43,42.69a20.31,20.31,0,0,1,1,6.48,20,20,0,0,1-1.8,8.56c-1.12,2.31.81,4.88,3.6,4.88h0c2.8,0,4.72-2.57,3.61-4.88A19.87,19.87,0,0,1,52,49.17a21.12,21.12,0,0,1,1-6.51q-1,0-2,0C49.78,42.69,48.61,42.76,47.43,42.69Z"/></svg>