<svg id="Capa_1" data-name="Capa 1" xmlns="http://www.w3.org/2000/svg" viewBox="0 0 101.64 91.74"><defs><style>.cls-1,.cls-2,.cls-3{fill:none;stroke:#595959;}.cls-1{stroke-miterlimit:10;stroke-width:5.59px;}.cls-2,.cls-3{stroke-linecap:round;stroke-linejoin:round;}.cls-2{stroke-width:2px;}</style></defs><title>llls</title><rect class="cls-1" x="8.67" y="8.67" width="84.3" height="74.4"/><rect class="cls-2" x="17.45" y="38.55" width="66.74" height="24.06" rx="4.69"/><rect class="cls-2" x="20.83" y="41.13" width="60.51" height="18.91" rx="2.51"/><line class="cls-2" x1="20.83" y1="47.75" x2="41.31" y2="47.75"/><line class="cls-2" x1="20.83" y1="54.89" x2="41.31" y2="54.89"/><rect class="cls-2" x="41.31" y="41.13" width="4.09" height="18.91"/><rect class="cls-2" x="60.3" y="41.13" width="4.73" height="18.91"/><rect class="cls-2" x="23.34" y="62.61" width="55.39" height="1.38"/><path class="cls-2" d="M21.88,62.61l-.42,3.57a.48.48,0,0,0,.48.54h0a.48.48,0,0,0,.45-.31L23.34,64V62.61Z"/><path class="cls-2" d="M80.18,62.61l.42,3.57a.49.49,0,0,1-.48.54h0a.48.48,0,0,1-.45-.31l-1-2.42V62.61Z"/><line class="cls-3" x1="67.71" y1="50.58" x2="68.92" y2="51.8"/><line class="cls-3" x1="68.92" y1="50.58" x2="67.71" y2="51.8"/><line class="cls-3" x1="56.62" y1="50.58" x2="57.83" y2="51.8"/><line class="cls-3" x1="57.83" y1="50.58" x2="56.62" y2="51.8"/><line class="cls-3" x1="29.53" y1="50.58" x2="30.74" y2="51.8"/><line class="cls-3" x1="30.74" y1="50.58" x2="29.53" y2="51.8"/><line class="cls-3" x1="29.53" y1="44.03" x2="30.74" y2="45.24"/><line class="cls-3" x1="30.74" y1="44.03" x2="29.53" y2="45.24"/><line class="cls-3" x1="29.53" y1="56.84" x2="30.74" y2="58.05"/><line class="cls-3" x1="30.74" y1="56.84" x2="29.53" y2="58.05"/></svg>