<svg id="Capa_1" data-name="Capa 1" xmlns="http://www.w3.org/2000/svg" viewBox="0 0 101.64 91.74"><defs><style>.cls-1,.cls-2{fill:none;stroke:#595959;}.cls-1{stroke-miterlimit:10;stroke-width:5.59px;}.cls-2{stroke-linecap:round;stroke-linejoin:round;stroke-width:2px;}</style></defs><title>llls</title><rect class="cls-1" x="8.67" y="8.67" width="84.3" height="74.4"/><polygon class="cls-2" points="65.81 50.73 37.64 50.73 39.58 48.2 63.87 48.2 65.81 50.73"/><polygon class="cls-2" points="37.64 50.73 37.64 74.24 41.02 74.24 43.05 59.51 60.4 59.51 62.43 74.24 65.81 74.24 65.81 50.73 37.64 50.73"/><polyline class="cls-2" points="63.87 48.2 63.87 17.83 61.51 17.83 61.51 20.2 51.72 20.2 41.94 20.2 41.94 17.83 39.58 17.83 39.58 48.2"/><polyline class="cls-2" points="59.33 48.2 60.37 37.95 51.72 37.95 51.57 37.95 42.92 37.95 43.96 48.2"/><polygon class="cls-2" points="60.37 35.43 43.01 35.43 42.61 32.49 60.76 32.49 60.37 35.43"/><line class="cls-2" x1="42.01" y1="67.01" x2="61.43" y2="67.01"/><line class="cls-2" x1="41.63" y1="69.81" x2="61.78" y2="69.81"/></svg>