<svg id="Capa_1" data-name="Capa 1" xmlns="http://www.w3.org/2000/svg" viewBox="0 0 101.64 91.74"><defs><style>.cls-1,.cls-2{fill:none;stroke:#566567;}.cls-1{stroke-miterlimit:10;stroke-width:5.59px;}.cls-2{stroke-linecap:round;stroke-linejoin:round;stroke-width:2px;}</style></defs><title>iconosweb_Hover</title><rect class="cls-1" x="8.67" y="8.67" width="84.3" height="74.4"/><rect class="cls-2" x="26.61" y="28.51" width="49.95" height="3.91"/><polygon class="cls-2" points="66.55 36.34 36.61 36.34 32.49 32.43 71.22 32.43 66.55 36.34"/><polygon class="cls-2" points="74.59 32.43 70.68 32.43 51.58 50.56 32.49 32.43 28.57 32.43 49.63 52.42 31.95 69.2 35.86 69.2 51.58 54.28 67.3 69.2 71.22 69.2 53.54 52.42 74.59 32.43"/><polygon class="cls-2" points="34.33 37.89 42.77 51.73 36.79 64.6 41.66 59.98 45.95 51.73 40.87 44.1 34.33 37.89"/><polygon class="cls-2" points="68.87 37.89 60.43 51.73 66.4 64.6 61.53 59.98 57.25 51.73 62.33 44.1 68.87 37.89"/></svg>