<svg id="Capa_1" data-name="Capa 1" xmlns="http://www.w3.org/2000/svg" viewBox="0 0 101.64 91.74"><defs><style>.cls-1,.cls-2,.cls-3{fill:none;stroke:#566567;}.cls-1{stroke-miterlimit:10;stroke-width:5.59px;}.cls-2,.cls-3{stroke-linecap:round;stroke-linejoin:round;}.cls-3{stroke-width:2.52px;}</style></defs><title>iconosweb_Hover</title><rect class="cls-1" x="8.67" y="8.67" width="84.3" height="74.4"/><line class="cls-2" x1="45.41" y1="27.17" x2="46.94" y2="28.7"/><line class="cls-2" x1="46.94" y1="27.17" x2="45.41" y2="28.7"/><line class="cls-2" x1="54.06" y1="27.14" x2="55.58" y2="28.67"/><line class="cls-2" x1="55.58" y1="27.14" x2="54.06" y2="28.67"/><line class="cls-2" x1="53.29" y1="62.64" x2="54.82" y2="64.17"/><line class="cls-2" x1="54.82" y1="62.64" x2="53.29" y2="64.17"/><line class="cls-2" x1="46.18" y1="62.64" x2="47.7" y2="64.17"/><line class="cls-2" x1="47.7" y1="62.64" x2="46.18" y2="64.17"/><polygon class="cls-3" points="67.36 36.41 50.6 36.41 33.83 36.41 33.83 19.46 67.36 19.46 67.36 36.41"/><line class="cls-3" x1="50.6" y1="19.46" x2="50.6" y2="36.41"/><rect class="cls-3" x="33.83" y="48.94" width="33.53" height="23.33"/><rect class="cls-3" x="38.56" y="53.01" width="24.07" height="19.26"/><line class="cls-3" x1="50.6" y1="53.01" x2="50.6" y2="72.28"/><rect class="cls-3" x="33.83" y="44.78" width="33.53" height="4.16"/></svg>