<svg id="Capa_1" data-name="Capa 1" xmlns="http://www.w3.org/2000/svg" viewBox="0 0 101.64 91.74"><defs><style>.cls-1,.cls-2,.cls-3{fill:none;stroke:#595959;}.cls-1{stroke-miterlimit:10;stroke-width:5.59px;}.cls-2,.cls-3{stroke-linecap:round;stroke-linejoin:round;}.cls-2{stroke-width:2.52px;}</style></defs><title>iconosweb</title><rect class="cls-1" x="8.67" y="8.67" width="84.3" height="74.4"/><rect class="cls-2" x="38.47" y="21.59" width="16.76" height="50.69"/><rect class="cls-2" x="42.92" y="25.83" width="7.87" height="42.2"/><rect class="cls-2" x="55.23" y="21.59" width="18.17" height="4.25"/><rect class="cls-2" x="55.23" y="48.77" width="18.17" height="7.85"/><rect class="cls-2" x="28.24" y="17.34" width="10.23" height="54.93"/><rect class="cls-2" x="55.23" y="56.58" width="18.17" height="7.85"/><rect class="cls-2" x="55.23" y="64.43" width="18.17" height="7.85"/><rect class="cls-2" x="38.47" y="17.34" width="34.93" height="4.25"/><line class="cls-2" x1="42.92" y1="25.83" x2="38.47" y2="21.59"/><line class="cls-2" x1="50.78" y1="25.83" x2="55.23" y2="21.59"/><line class="cls-2" x1="42.92" y1="68.03" x2="38.47" y2="72.28"/><line class="cls-2" x1="50.78" y1="68.03" x2="55.23" y2="72.28"/><line class="cls-3" x1="63.55" y1="51.93" x2="65.08" y2="53.45"/><line class="cls-3" x1="65.08" y1="51.93" x2="63.55" y2="53.45"/><line class="cls-3" x1="63.55" y1="59.74" x2="65.08" y2="61.27"/><line class="cls-3" x1="65.08" y1="59.74" x2="63.55" y2="61.27"/><line class="cls-3" x1="63.55" y1="67.56" x2="65.08" y2="69.08"/><line class="cls-3" x1="65.08" y1="67.56" x2="63.55" y2="69.08"/><rect class="cls-2" x="60.78" y="44.78" width="8.6" height="3.99"/><line class="cls-2" x1="64.98" y1="25.83" x2="64.98" y2="40.83"/><path class="cls-2" d="M70.14,40.83H60V32.67A2.89,2.89,0,0,1,61.85,30L65,28.73,68.27,30a2.9,2.9,0,0,1,1.87,2.71Z"/></svg>