<svg id="Capa_1" data-name="Capa 1" xmlns="http://www.w3.org/2000/svg" viewBox="0 0 101.64 91.74"><defs><style>.cls-1,.cls-2{fill:none;stroke:#566567;}.cls-1{stroke-miterlimit:10;stroke-width:5.59px;}.cls-2{stroke-linecap:round;stroke-linejoin:round;stroke-width:2px;}</style></defs><title>iconosweb_Hover</title><rect class="cls-1" x="8.67" y="8.67" width="84.3" height="74.4"/><path class="cls-2" d="M79.32,49.61a2,2,0,0,0-2.83.16c-.46.51-1.11,1.06-1.43.9a.71.71,0,0,1-.29-.63V41.45a2,2,0,0,0-2-2H53V37.61a7.19,7.19,0,1,0-9.19-6.91,2,2,0,0,0,4,0A3.2,3.2,0,1,1,51,33.9a2,2,0,0,0-2,2v3.55H29.32a2,2,0,0,0-2,2V50a4.68,4.68,0,0,0,2.49,4.2,4.3,4.3,0,0,0,1.92.46A5.8,5.8,0,0,0,36,52.44a2.24,2.24,0,0,0,.35-.57,4.46,4.46,0,0,0,2.13,2.37,4.32,4.32,0,0,0,1.93.46,5.8,5.8,0,0,0,4.28-2.26,2.24,2.24,0,0,0,.35-.57,4.46,4.46,0,0,0,2.13,2.37,4.32,4.32,0,0,0,1.93.46,5.8,5.8,0,0,0,4.28-2.26,2.24,2.24,0,0,0,.35-.57,4.46,4.46,0,0,0,2.13,2.37,4.32,4.32,0,0,0,1.93.46,5.8,5.8,0,0,0,4.28-2.26,2.24,2.24,0,0,0,.35-.57,4.46,4.46,0,0,0,2.13,2.37,4.32,4.32,0,0,0,1.93.46,5.8,5.8,0,0,0,4.28-2.26,2.24,2.24,0,0,0,.35-.57,4.46,4.46,0,0,0,2.13,2.37,4.32,4.32,0,0,0,1.93.46,5.8,5.8,0,0,0,4.28-2.26A2,2,0,0,0,79.32,49.61ZM33,49.77c-.46.51-1.11,1.06-1.44.9a.73.73,0,0,1-.28-.63V43.45H36v6.32l-.14-.16A2,2,0,0,0,33,49.77Zm8.69,0c-.46.51-1.11,1.06-1.43.9A.71.71,0,0,1,40,50V43.45H44.7v6.32l-.14-.16A2,2,0,0,0,41.73,49.77Zm8.69,0c-.46.51-1.11,1.06-1.43.9A.71.71,0,0,1,48.7,50V43.45h4.69v6.32l-.14-.16A2,2,0,0,0,50.42,49.77Zm8.69,0c-.46.51-1.12,1.06-1.43.9a.71.71,0,0,1-.29-.63V43.45h4.69v6.32l-.14-.16A2,2,0,0,0,59.11,49.77Zm8.69,0c-.46.51-1.12,1.06-1.43.9a.71.71,0,0,1-.29-.63V43.45h4.69v6.32l-.14-.16A2,2,0,0,0,67.8,49.77Z"/><polyline class="cls-2" points="27.32 50.04 27.32 62.38 74.58 62.38 74.58 54.7"/><polyline class="cls-2" points="27.32 62.38 27.32 66.05 74.58 66.05 74.58 62.38"/></svg>