<svg id="Capa_1" data-name="Capa 1" xmlns="http://www.w3.org/2000/svg" viewBox="0 0 101.64 91.74"><defs><style>.cls-1,.cls-2,.cls-3{fill:none;stroke:#595959;}.cls-1{stroke-miterlimit:10;stroke-width:5.59px;}.cls-2,.cls-3{stroke-linecap:round;stroke-linejoin:round;}.cls-2{stroke-width:2.52px;}.cls-4{fill:#595959;}</style></defs><title>cccc</title><rect class="cls-1" x="8.67" y="8.67" width="84.3" height="74.4"/><polygon class="cls-2" points="78.12 36.41 50.6 36.41 23.08 36.41 23.08 19.46 78.12 19.46 78.12 36.41"/><line class="cls-2" x1="50.6" y1="19.46" x2="50.6" y2="36.41"/><line class="cls-3" x1="47.88" y1="24.65" x2="47.88" y2="30.38"/><line class="cls-3" x1="53.16" y1="24.65" x2="53.16" y2="30.38"/><line class="cls-3" x1="47.88" y1="60.61" x2="47.88" y2="66.33"/><line class="cls-3" x1="53.16" y1="60.61" x2="53.16" y2="66.33"/><circle class="cls-4" cx="47.88" cy="32.84" r="0.84"/><rect class="cls-2" x="23.08" y="44.63" width="55.04" height="4.31"/><rect class="cls-2" x="23.08" y="48.94" width="55.04" height="23.33"/><rect class="cls-2" x="26.95" y="53.01" width="47.29" height="19.26"/><line class="cls-3" x1="50.6" y1="53.01" x2="50.6" y2="72.28"/><path class="cls-3" d="M53.16,41.26c0-1.71.73-2,1.63-2s1.63.28,1.63,2v3.37"/><line class="cls-3" x1="61.98" y1="44.63" x2="59.4" y2="39.27"/><line class="cls-3" x1="69.38" y1="44.63" x2="71.96" y2="39.27"/><line class="cls-3" x1="60.89" y1="42.38" x2="70.46" y2="42.38"/><line class="cls-3" x1="59.81" y1="40.13" x2="71.54" y2="40.13"/></svg>