<svg id="Capa_1" data-name="Capa 1" xmlns="http://www.w3.org/2000/svg" viewBox="0 0 101.64 91.74"><defs><style>.cls-1,.cls-2,.cls-4{fill:none;stroke:#595959;}.cls-1{stroke-miterlimit:10;stroke-width:5.59px;}.cls-2,.cls-4{stroke-linecap:round;stroke-linejoin:round;}.cls-3{fill:#595959;}.cls-4{stroke-width:2.52px;}</style></defs><title>cccc</title><rect class="cls-1" x="8.67" y="8.67" width="84.3" height="74.4"/><line class="cls-2" x1="50.46" y1="43.87" x2="51.99" y2="45.4"/><line class="cls-2" x1="51.99" y1="43.87" x2="50.46" y2="45.4"/><circle class="cls-3" cx="60.49" cy="27.09" r="0.84"/><circle class="cls-3" cx="60.49" cy="29.64" r="0.84"/><circle class="cls-3" cx="60.49" cy="32.19" r="0.84"/><circle class="cls-3" cx="60.49" cy="34.74" r="0.84"/><line class="cls-2" x1="48.5" y1="60.61" x2="48.5" y2="66.33"/><line class="cls-2" x1="53.79" y1="60.61" x2="53.79" y2="66.33"/><rect class="cls-4" x="34.46" y="40.62" width="33.53" height="8.32"/><rect class="cls-4" x="34.46" y="48.94" width="33.53" height="23.33"/><rect class="cls-4" x="39.19" y="53.01" width="24.07" height="19.26"/><line class="cls-4" x1="51.22" y1="53.01" x2="51.22" y2="72.28"/><line class="cls-2" x1="47.39" y1="44.63" x2="40.79" y2="44.63"/><line class="cls-2" x1="61.77" y1="44.63" x2="55.17" y2="44.63"/><polyline class="cls-4" points="34.46 40.62 34.46 22.48 38.44 22.48 38.44 40.62"/><polyline class="cls-4" points="64.01 40.62 64.01 22.48 67.99 22.48 67.99 40.62"/><rect class="cls-4" x="28.81" y="18.81" width="44.83" height="3.67"/><rect class="cls-4" x="42.25" y="26.48" width="14.56" height="9.92"/></svg>