<svg id="Capa_1" data-name="Capa 1" xmlns="http://www.w3.org/2000/svg" viewBox="0 0 101.64 91.74"><defs><style>.cls-1,.cls-2,.cls-3{fill:none;stroke:#595959;}.cls-1{stroke-miterlimit:10;stroke-width:5.59px;}.cls-2,.cls-3{stroke-linecap:round;stroke-linejoin:round;}.cls-3{stroke-width:2.52px;}</style></defs><title>cccc</title><rect class="cls-1" x="8.67" y="8.67" width="84.3" height="74.4"/><line class="cls-2" x1="38" y1="24.65" x2="38" y2="30.38"/><line class="cls-2" x1="57.55" y1="24.65" x2="57.55" y2="30.38"/><line class="cls-2" x1="66.71" y1="52.15" x2="66.71" y2="57.87"/><line class="cls-2" x1="43.67" y1="56.69" x2="43.67" y2="62.41"/><line class="cls-2" x1="38" y1="56.69" x2="38" y2="62.41"/><line class="cls-2" x1="72.2" y1="52.15" x2="72.2" y2="57.87"/><line class="cls-2" x1="75.57" y1="24.65" x2="75.57" y2="30.38"/><polygon class="cls-3" points="78.34 36.41 50.82 36.41 23.3 36.41 23.3 19.46 78.34 19.46 78.34 36.41"/><polygon class="cls-3" points="60.58 36.41 50.82 36.41 41.06 36.41 41.06 19.46 60.58 19.46 60.58 36.41"/><polygon class="cls-3" points="78.34 70.52 69.46 70.52 60.58 70.52 60.58 41.13 78.34 41.13 78.34 70.52"/><path class="cls-3" d="M38.77,53s-3.58-.86-3.58-5.54H46.92c0,4.68-3.57,5.54-3.57,5.54"/><path class="cls-2" d="M41.78,44.09c0-1.71.53-2,1.2-2s1.19.28,1.19,2v3.37"/><polygon class="cls-3" points="60.58 70.52 41.94 70.52 23.3 70.52 23.3 53.01 60.58 53.01 60.58 70.52"/><line class="cls-3" x1="60.58" y1="45.25" x2="78.34" y2="45.25"/><line class="cls-3" x1="23.3" y1="66.33" x2="78.34" y2="66.33"/><line class="cls-3" x1="69.46" y1="45.25" x2="69.46" y2="66.33"/><line class="cls-3" x1="41.06" y1="53.01" x2="41.06" y2="66.09"/></svg>