<svg id="Capa_1" data-name="Capa 1" xmlns="http://www.w3.org/2000/svg" viewBox="0 0 101.64 91.74"><defs><style>.cls-1,.cls-2{fill:none;stroke:#595959;}.cls-1{stroke-miterlimit:10;stroke-width:5.59px;}.cls-2{stroke-linecap:round;stroke-linejoin:round;stroke-width:2.52px;}.cls-3{fill:#595959;}</style></defs><title>cccc</title><rect class="cls-1" x="8.67" y="8.67" width="84.3" height="74.4"/><line class="cls-2" x1="50.82" y1="68.48" x2="50.82" y2="63.19"/><line class="cls-2" x1="50.82" y1="53.32" x2="50.82" y2="39.57"/><path class="cls-2" d="M52.31,57.76c1.18,1.08,2.6,5.43-1.49,5.43s-2.67-4.35-1.49-5.43a2.15,2.15,0,0,1,3,0Z"/><path class="cls-2" d="M52.42,54.42a1.75,1.75,0,1,1-3.21,0,1.72,1.72,0,0,1,3.21,0Z"/><path class="cls-2" d="M55.24,32c0,4.2-2,7.6-4.5,7.6s-4.51-3.4-4.51-7.6Z"/><path class="cls-2" d="M39.86,39.09c0,4.2-2,7.6-4.5,7.6s-4.51-3.4-4.51-7.6Z"/><path class="cls-2" d="M61.77,39.09c0,4.2,2,7.6,4.51,7.6s4.5-3.4,4.5-7.6Z"/><path class="cls-2" d="M66.28,46.69a5.22,5.22,0,1,1-10.4,0H45.75a5.43,5.43,0,0,1-5.19,5.65,5.43,5.43,0,0,1-5.2-5.65"/><line class="cls-2" x1="47.74" y1="42.89" x2="53.9" y2="42.89"/><line class="cls-2" x1="47.74" y1="68.48" x2="53.9" y2="68.48"/><path class="cls-2" d="M35.36,35.77s6,.92,0-7.67C29.4,36.69,35.36,35.77,35.36,35.77Z"/><path class="cls-3" d="M34.1,35.14l1.26-2.49,1.26,2.49a1.41,1.41,0,1,1-2.52,0Z"/><path class="cls-2" d="M66.28,35.77s6,.92,0-7.67C60.32,36.69,66.28,35.77,66.28,35.77Z"/><path class="cls-3" d="M65,35.14l1.26-2.49,1.26,2.49a1.41,1.41,0,1,1-2.52,0Z"/><path class="cls-2" d="M50.74,28.73s6,.91,0-7.67C44.78,29.64,50.74,28.73,50.74,28.73Z"/><path class="cls-3" d="M49.48,28.1l1.26-2.5L52,28.1a1.41,1.41,0,1,1-2.52,0Z"/><line class="cls-2" x1="55.24" y1="46.69" x2="55.24" y2="53.64"/><line class="cls-2" x1="46.23" y1="46.69" x2="46.23" y2="53.64"/></svg>