<svg id="Capa_1" data-name="Capa 1" xmlns="http://www.w3.org/2000/svg" viewBox="0 0 101.64 91.74"><defs><style>.cls-1,.cls-2{fill:none;stroke:#595959;}.cls-1{stroke-miterlimit:10;stroke-width:5.59px;}.cls-2{stroke-linecap:round;stroke-linejoin:round;stroke-width:2px;}</style></defs><title>iconosweb</title><rect class="cls-1" x="8.67" y="8.67" width="84.3" height="74.4"/><path class="cls-2" d="M63.71,32.89a11.83,11.83,0,1,0-23.65,0V42h0a12.41,12.41,0,0,1,23.65,0h0Z"/><ellipse class="cls-2" cx="51.89" cy="49.25" rx="11.45" ry="7.22"/><rect class="cls-2" x="43.62" y="63.62" width="3.56" height="3.56"/><rect class="cls-2" x="40.06" y="67.15" width="3.56" height="3.56"/><rect class="cls-2" x="60.15" y="67.15" width="3.56" height="3.56"/><rect class="cls-2" x="56.59" y="63.62" width="3.56" height="3.56"/><path class="cls-2" d="M43.43,44.4V36.88l-.1-.1A11.45,11.45,0,0,0,40.06,42v5.29h.8A7.22,7.22,0,0,1,43.43,44.4Z"/><path class="cls-2" d="M63.71,42a11.46,11.46,0,0,0-3.23-5.22l-.14.07V44.4a7.07,7.07,0,0,1,2.57,2.92h.8Z"/><path class="cls-2" d="M43.62,63.62h3.56V55.83a13.35,13.35,0,0,1-3.56-1.59Z"/><path class="cls-2" d="M56.59,55.83v7.79h3.56V54.24A13.21,13.21,0,0,1,56.59,55.83Z"/><path class="cls-2" d="M62.05,45.93a5.21,5.21,0,0,1,1.29,3.32c0,1.94-1.22,3.69-3.19,5V70.71h3.56V45.93Z"/><path class="cls-2" d="M40.44,49.25a5.21,5.21,0,0,1,1.29-3.32H40.06V70.71h3.56V54.24C41.65,52.94,40.44,51.19,40.44,49.25Z"/></svg>