<svg id="Capa_1" data-name="Capa 1" xmlns="http://www.w3.org/2000/svg" viewBox="0 0 101.64 91.74"><defs><style>.cls-1,.cls-2,.cls-3,.cls-4,.cls-5{fill:none;stroke:#595959;}.cls-1{stroke-miterlimit:10;stroke-width:5.59px;}.cls-2,.cls-3,.cls-4,.cls-5{stroke-linecap:round;stroke-linejoin:round;}.cls-2{stroke-width:2.52px;}.cls-3{stroke-width:1.46px;}.cls-4{stroke-width:1.26px;}</style></defs><title>iconosweb</title><rect class="cls-1" x="8.67" y="8.67" width="84.3" height="74.4"/><rect class="cls-2" x="27.35" y="36.38" width="46.94" height="9.46"/><rect class="cls-3" x="44.56" y="30.21" width="3.59" height="8.93" transform="translate(11.68 81.02) rotate(-90)"/><rect class="cls-3" x="44.56" y="26.61" width="3.59" height="8.93" transform="translate(15.27 77.43) rotate(-90)"/><rect class="cls-3" x="55.87" y="32.5" width="3.59" height="4.17" transform="translate(23.08 92.25) rotate(-90)"/><line class="cls-4" x1="50.06" y1="40.35" x2="51.58" y2="41.87"/><line class="cls-4" x1="51.58" y1="40.35" x2="50.06" y2="41.87"/><rect class="cls-2" x="41.89" y="36.38" width="17.86" height="9.46"/><line class="cls-5" x1="30.4" y1="41.11" x2="38.25" y2="41.11"/><line class="cls-5" x1="63.22" y1="41.11" x2="71.07" y2="41.11"/><polygon class="cls-2" points="34.33 45.84 27.35 65.43 28.58 65.43 38.78 45.84 34.33 45.84"/><polygon class="cls-2" points="67.31 45.84 74.29 65.43 73.06 65.43 62.85 45.84 67.31 45.84"/><line class="cls-2" x1="36.84" y1="49.57" x2="64.8" y2="49.57"/><polyline class="cls-2" points="27.35 45.84 27.35 49.58 33 49.58"/><polyline class="cls-2" points="74.29 45.84 74.29 49.58 68.64 49.58"/></svg>