<svg id="Capa_1" data-name="Capa 1" xmlns="http://www.w3.org/2000/svg" viewBox="0 0 101.64 91.74"><defs><style>.cls-1,.cls-2,.cls-3{fill:none;stroke:#566567;}.cls-1{stroke-miterlimit:10;stroke-width:5.59px;}.cls-2,.cls-3{stroke-linecap:round;stroke-linejoin:round;}.cls-2{stroke-width:2px;}</style></defs><title>iconosweb_Hover</title><rect class="cls-1" x="8.67" y="8.67" width="84.3" height="74.4"/><rect class="cls-2" x="27.65" y="22.97" width="43.35" height="47.69"/><line class="cls-3" x1="58.1" y1="45.4" x2="59.63" y2="46.93"/><line class="cls-3" x1="59.63" y1="45.4" x2="58.1" y2="46.93"/><line class="cls-2" x1="31.7" y1="22.97" x2="31.7" y2="70.66"/><line class="cls-2" x1="66.96" y1="22.97" x2="66.96" y2="70.66"/><line class="cls-2" x1="66.96" y1="66.35" x2="31.7" y2="66.35"/><line class="cls-2" x1="66.96" y1="26.81" x2="31.7" y2="26.81"/><rect class="cls-2" x="31.7" y="39.91" width="35.26" height="13.82"/><line class="cls-3" x1="54.97" y1="46.16" x2="39.86" y2="46.16"/><line class="cls-3" x1="58.1" y1="58.72" x2="59.63" y2="60.24"/><line class="cls-3" x1="59.63" y1="58.72" x2="58.1" y2="60.24"/><line class="cls-3" x1="54.97" y1="59.48" x2="39.86" y2="59.48"/><line class="cls-3" x1="58.1" y1="32.21" x2="59.63" y2="33.73"/><line class="cls-3" x1="59.63" y1="32.21" x2="58.1" y2="33.73"/><line class="cls-3" x1="54.97" y1="32.97" x2="39.86" y2="32.97"/></svg>