<svg id="Capa_1" data-name="Capa 1" xmlns="http://www.w3.org/2000/svg" viewBox="0 0 101.64 91.74"><defs><style>.cls-1,.cls-2,.cls-3{fill:none;stroke:#566567;}.cls-1{stroke-miterlimit:10;stroke-width:5.59px;}.cls-2,.cls-3{stroke-linecap:round;stroke-linejoin:round;}.cls-2{stroke-width:2px;}</style></defs><title>iconosweb_Hover</title><rect class="cls-1" x="8.67" y="8.67" width="84.3" height="74.4"/><path class="cls-2" d="M74,40.34v19.2H28.49V40.34H24.62a4.56,4.56,0,0,0-4.57,4.57V65H82.42V44.91a4.56,4.56,0,0,0-4.57-4.57Z"/><rect class="cls-2" x="20.05" y="65.01" width="4.22" height="5.13"/><rect class="cls-2" x="78.2" y="65.01" width="4.22" height="5.13"/><path class="cls-2" d="M28.49,52.67H46.28a5,5,0,0,1,5,5v1.92a0,0,0,0,1,0,0H28.49a0,0,0,0,1,0,0V52.67A0,0,0,0,1,28.49,52.67Z"/><path class="cls-2" d="M51.24,52.67H74a0,0,0,0,1,0,0v1.92a5,5,0,0,1-5,5H51.24a0,0,0,0,1,0,0V52.67A0,0,0,0,1,51.24,52.67Z" transform="translate(125.21 112.22) rotate(-180)"/><path class="cls-2" d="M51.24,59.54V29.79H31.93a7.66,7.66,0,0,0-7.66,7.66v2.89"/><line class="cls-3" x1="35.06" y1="35.28" x2="36.58" y2="36.8"/><line class="cls-3" x1="36.58" y1="35.28" x2="35.06" y2="36.8"/><line class="cls-3" x1="43.15" y1="35.28" x2="44.67" y2="36.8"/><line class="cls-3" x1="44.67" y1="35.28" x2="43.15" y2="36.8"/><line class="cls-3" x1="35.06" y1="43.65" x2="36.58" y2="45.17"/><line class="cls-3" x1="36.58" y1="43.65" x2="35.06" y2="45.17"/><line class="cls-3" x1="43.15" y1="43.65" x2="44.67" y2="45.17"/><line class="cls-3" x1="44.67" y1="43.65" x2="43.15" y2="45.17"/><line class="cls-3" x1="57.8" y1="35.28" x2="59.33" y2="36.8"/><line class="cls-3" x1="59.33" y1="35.28" x2="57.8" y2="36.8"/><line class="cls-3" x1="65.89" y1="35.28" x2="67.41" y2="36.8"/><line class="cls-3" x1="67.41" y1="35.28" x2="65.89" y2="36.8"/><line class="cls-3" x1="57.8" y1="43.65" x2="59.33" y2="45.17"/><line class="cls-3" x1="59.33" y1="43.65" x2="57.8" y2="45.17"/><line class="cls-3" x1="65.89" y1="43.65" x2="67.41" y2="45.17"/><line class="cls-3" x1="67.41" y1="43.65" x2="65.89" y2="45.17"/><path class="cls-2" d="M51.24,58.91V29.79H70.55a7.66,7.66,0,0,1,7.65,7.66v2.89"/></svg>