<svg id="Capa_1" data-name="Capa 1" xmlns="http://www.w3.org/2000/svg" viewBox="0 0 101.64 91.74"><defs><style>.cls-1,.cls-2{fill:none;stroke:#566567;}.cls-1{stroke-miterlimit:10;stroke-width:5.59px;}.cls-2{stroke-linecap:round;stroke-linejoin:round;stroke-width:2px;}</style></defs><title>iconosweb_Hover</title><rect class="cls-1" x="8.67" y="8.67" width="84.3" height="74.4"/><rect class="cls-2" x="46.49" y="54.34" width="6.62" height="12.91"/><rect class="cls-2" x="41" y="67.25" width="17.61" height="3.38"/><path class="cls-2" d="M47.68,33.4v4.89a6,6,0,0,1-12.09,0"/><line class="cls-2" x1="60.86" y1="46.03" x2="52.07" y2="46.03"/><line class="cls-2" x1="47.66" y1="49.55" x2="38.88" y2="49.55"/><path class="cls-2" d="M51.92,30.78v3.09a6,6,0,1,0,12.09,0"/><path class="cls-2" d="M54.67,26c-.56-1-2.31-1.06-4.42-.41.5,1,.87,1.88.87,1.88a10.46,10.46,0,0,1-5.67,3.07s-.6-.51-1.32-1.23c-1.29,1.34-1.86,2.68-1.37,3.54.8,1.39,4.11,1,7.4-.91S55.47,27.4,54.67,26Z"/><path class="cls-2" d="M47.66,21.17s-4.32-.88-6,4.14"/><path class="cls-2" d="M32.06,49.55a5.61,5.61,0,1,0,11.21,0"/><path class="cls-2" d="M56.64,46a5.61,5.61,0,0,0,11.21,0"/><path class="cls-2" d="M51.12,27.48a10.46,10.46,0,0,1-5.67,3.07S39.84,25.76,42.07,25s4.93-2.15,5.29-3.66S51.12,27.48,51.12,27.48Z"/><path class="cls-2" d="M47.68,33.1V54.34h4.24V30.78A14.53,14.53,0,0,1,50.16,32,14.36,14.36,0,0,1,47.68,33.1Z"/></svg>