<svg id="Capa_1" data-name="Capa 1" xmlns="http://www.w3.org/2000/svg" viewBox="0 0 101.64 91.74"><defs><style>.cls-1,.cls-2,.cls-3{fill:none;stroke:#566567;}.cls-1{stroke-miterlimit:10;stroke-width:5.59px;}.cls-2,.cls-3{stroke-linecap:round;stroke-linejoin:round;}.cls-2{stroke-width:2px;}</style></defs><title>iconosweb_Hover</title><rect class="cls-1" x="8.67" y="8.67" width="84.3" height="74.4"/><rect class="cls-2" x="31.32" y="64.21" width="4.22" height="5.13"/><rect class="cls-2" x="68.73" y="64.21" width="4.22" height="5.13"/><path class="cls-2" d="M43.94,23.38H60.33A6.69,6.69,0,0,1,67,30.07v21.8a0,0,0,0,1,0,0H37.25a0,0,0,0,1,0,0V30.07A6.69,6.69,0,0,1,43.94,23.38Z"/><line class="cls-3" x1="47.33" y1="32.94" x2="48.86" y2="34.47"/><line class="cls-3" x1="48.86" y1="32.94" x2="47.33" y2="34.47"/><line class="cls-3" x1="55.42" y1="32.94" x2="56.95" y2="34.47"/><line class="cls-3" x1="56.95" y1="32.94" x2="55.42" y2="34.47"/><line class="cls-3" x1="47.33" y1="41.31" x2="48.86" y2="42.84"/><line class="cls-3" x1="48.86" y1="41.31" x2="47.33" y2="42.84"/><line class="cls-3" x1="55.42" y1="41.31" x2="56.95" y2="42.84"/><line class="cls-3" x1="56.95" y1="41.31" x2="55.42" y2="42.84"/><path class="cls-2" d="M74.66,39.53a3.82,3.82,0,0,0-7.63,0V58.74H37.25V39.53a3.82,3.82,0,1,0-5.93,3.18v21.5H73V42.71A3.8,3.8,0,0,0,74.66,39.53Z"/></svg>