<svg id="Capa_1" data-name="Capa 1" xmlns="http://www.w3.org/2000/svg" viewBox="0 0 101.64 91.74"><defs><style>.cls-1,.cls-2{fill:none;stroke:#595959;}.cls-1{stroke-miterlimit:10;stroke-width:5.59px;}.cls-2{stroke-linecap:round;stroke-linejoin:round;stroke-width:2.52px;}</style></defs><title>losooso</title><rect class="cls-1" x="8.67" y="8.67" width="84.3" height="74.4"/><polygon class="cls-2" points="24.59 50.83 24.59 61.84 31.7 61.84 69.94 61.84 77.04 61.84 77.04 50.83 24.59 50.83"/><rect class="cls-2" x="24.6" y="61.84" width="3.55" height="5.13"/><rect class="cls-2" x="73.49" y="61.84" width="3.55" height="5.13"/><circle class="cls-2" cx="75.27" cy="25.39" r="2.54"/><path class="cls-2" d="M26.37,30.58h0a1.78,1.78,0,0,1,1.78,1.78V50.83a0,0,0,0,1,0,0H24.6a0,0,0,0,1,0,0V32.35a1.78,1.78,0,0,1,1.78-1.78Z"/><path class="cls-2" d="M75.27,30.58h0A1.78,1.78,0,0,1,77,32.35V50.83a0,0,0,0,1,0,0H73.49a0,0,0,0,1,0,0V32.35A1.78,1.78,0,0,1,75.27,30.58Z"/><ellipse class="cls-2" cx="26.37" cy="25.39" rx="2.52" ry="2.67"/><polyline class="cls-2" points="28.15 32.35 35.27 32.35 35.27 44.16 41.19 44.16 41.19 32.35 47.71 32.35 47.71 44.16 53.74 44.16 53.74 32.35 60.54 32.35 60.54 44.16 66.47 44.16 66.47 31.43 73.49 31.43"/><line class="cls-2" x1="24.6" y1="55.39" x2="77.04" y2="55.39"/><line class="cls-2" x1="35.27" y1="39.77" x2="41.19" y2="39.77"/><line class="cls-2" x1="47.71" y1="39.77" x2="53.74" y2="39.77"/><line class="cls-2" x1="60.54" y1="39.77" x2="66.47" y2="39.77"/></svg>