<svg id="Capa_1" data-name="Capa 1" xmlns="http://www.w3.org/2000/svg" viewBox="0 0 101.64 91.74"><defs><style>.cls-1,.cls-2,.cls-3{fill:none;stroke:#566567;}.cls-1{stroke-miterlimit:10;stroke-width:5.59px;}.cls-2,.cls-3{stroke-linecap:round;stroke-linejoin:round;}.cls-2{stroke-width:2px;}</style></defs><title>iconosweb_Hover</title><rect class="cls-1" x="8.67" y="8.67" width="84.3" height="74.4"/><path class="cls-2" d="M67.18,30.58H34.46a6.49,6.49,0,0,0-6.07,4.17l-8.76,23H82l-8.76-23A6.5,6.5,0,0,0,67.18,30.58Z"/><line class="cls-3" x1="34.52" y1="48.05" x2="36.04" y2="49.58"/><line class="cls-3" x1="36.04" y1="48.05" x2="34.52" y2="49.58"/><line class="cls-3" x1="39.6" y1="35.27" x2="41.13" y2="36.8"/><line class="cls-3" x1="41.13" y1="35.27" x2="39.6" y2="36.8"/><line class="cls-3" x1="57.6" y1="36.61" x2="59.12" y2="35.08"/><line class="cls-3" x1="59.12" y1="36.61" x2="57.6" y2="35.08"/><line class="cls-3" x1="64.45" y1="49.58" x2="65.98" y2="48.05"/><line class="cls-3" x1="65.98" y1="49.58" x2="64.45" y2="48.05"/><line class="cls-2" x1="27.8" y1="57.74" x2="36.6" y2="30.58"/><line class="cls-2" x1="39.6" y1="57.74" x2="46.77" y2="30.58"/><line class="cls-2" x1="49.6" y1="57.74" x2="55.16" y2="30.58"/><line class="cls-2" x1="59.12" y1="57.74" x2="63.69" y2="30.58"/><line class="cls-2" x1="68.99" y1="57.74" x2="71.85" y2="32.56"/><path class="cls-2" d="M19.63,57.74H82a0,0,0,0,1,0,0v1.52a5.93,5.93,0,0,1-5.93,5.93H25.56a5.93,5.93,0,0,1-5.93-5.93V57.74A0,0,0,0,1,19.63,57.74Z"/></svg>