<svg id="Capa_1" data-name="Capa 1" xmlns="http://www.w3.org/2000/svg" viewBox="0 0 101.64 91.74"><defs><style>.cls-1,.cls-2,.cls-3{fill:none;stroke:#566567;}.cls-1{stroke-miterlimit:10;stroke-width:5.59px;}.cls-2,.cls-3{stroke-linecap:round;stroke-linejoin:round;}.cls-2{stroke-width:2px;}</style></defs><title>iconosweb_Hover</title><rect class="cls-1" x="8.67" y="8.67" width="84.3" height="74.4"/><rect class="cls-2" x="23.12" y="62.34" width="4.22" height="5.13"/><polyline class="cls-2" points="27.84 31.16 74.29 31.16 74.29 40.62 53.05 40.62"/><rect class="cls-2" x="27.29" y="35.26" width="25.77" height="12.59"/><line class="cls-2" x1="27.35" y1="38.82" x2="53.05" y2="38.82"/><rect class="cls-2" x="23.12" y="31.16" width="4.16" height="31.19"/><rect class="cls-2" x="31.81" y="57.35" width="4.22" height="5.13"/><rect class="cls-2" x="31.81" y="48.05" width="4.16" height="9.29"/><rect class="cls-2" x="65.52" y="57.35" width="4.22" height="5.13"/><rect class="cls-2" x="65.52" y="44.16" width="4.16" height="13.19"/><rect class="cls-2" x="74.29" y="62.34" width="4.22" height="5.13"/><rect class="cls-2" x="74.29" y="31.16" width="4.16" height="31.19"/><line class="cls-3" x1="39.41" y1="42.79" x2="40.93" y2="44.32"/><line class="cls-3" x1="40.93" y1="42.79" x2="39.41" y2="44.32"/><line class="cls-2" x1="53.05" y1="44.16" x2="74.29" y2="44.16"/></svg>