<svg id="Capa_1" data-name="Capa 1" xmlns="http://www.w3.org/2000/svg" viewBox="0 0 101.64 91.74"><defs><style>.cls-1,.cls-2,.cls-3,.cls-4{fill:none;stroke:#595959;}.cls-1{stroke-miterlimit:10;stroke-width:5.59px;}.cls-2,.cls-3,.cls-4{stroke-linecap:round;stroke-linejoin:round;}.cls-2{stroke-width:2.52px;}.cls-3{stroke-width:0.95px;}.cls-4{stroke-width:0.75px;}.cls-5{fill:#595959;}</style></defs><title>losooso</title><rect class="cls-1" x="8.67" y="8.67" width="84.3" height="74.4"/><path class="cls-2" d="M75.2,43.85a3.1,3.1,0,0,1,.92,1,3.36,3.36,0,0,1-1.63,4.79L52.65,58.88s-1.71,1.29-4.57,0-21.79-9.62-21.79-9.62-2.28-.81-1.43-2.88,3.46-.78,3.46-.78,16.12,6.64,19.55,8.14,4-.64,4-.64.87-1.72-1.21-3.07-22.34-9.72-22.34-9.72L56.75,31,75.26,36.4a4.09,4.09,0,0,1,3,3.64c0,.09,0,.18,0,.27,0,3.23-5,4.34-27.07,13.65"/><path class="cls-2" d="M28.32,40.31s-3.16.91-1.88,4.62"/><path class="cls-2" d="M26.29,49.26l-.06.06a3.23,3.23,0,0,0,1.12,5.12L48,63.32s1.86,1,5.11,0c2.68-.83,16.59-7,21.41-9.09a3.1,3.1,0,0,0,1.79-3.59,1.9,1.9,0,0,0-1.17-1.38"/><path class="cls-3" d="M60.16,40.89c-1.92,1.37-5.65,1.85-8.33,1.06s-3.3-2.54-1.38-3.91S56.1,36.19,58.78,37,62.08,39.51,60.16,40.89Z"/><path class="cls-4" d="M52.52,38.65s-1.67,1.14,1,1.93a6.1,6.1,0,0,0,4.55-.3"/><ellipse class="cls-5" cx="55.05" cy="38.06" rx="1.3" ry="0.62" transform="translate(-8.02 15.66) rotate(-15.11)"/><ellipse class="cls-5" cx="57.6" cy="38.9" rx="1.3" ry="0.62" transform="translate(-8.15 16.36) rotate(-15.11)"/></svg>