<svg id="Capa_1" data-name="Capa 1" xmlns="http://www.w3.org/2000/svg" viewBox="0 0 101.64 91.74"><defs><style>.cls-1,.cls-2{fill:none;stroke:#595959;}.cls-1{stroke-miterlimit:10;stroke-width:5.59px;}.cls-2{stroke-linecap:round;stroke-linejoin:round;stroke-width:2.52px;}</style></defs><title>losooso</title><rect class="cls-1" x="8.67" y="8.67" width="84.3" height="74.4"/><path class="cls-2" d="M39.24,52v17h4.62V61.47a5.3,5.3,0,0,1,1.54-3.72h0a5.26,5.26,0,0,1,3.72-1.54h3.39a5.23,5.23,0,0,1,3.72,1.54h0a5.27,5.27,0,0,1,1.55,3.72v7.61H62.4V52Z"/><polygon class="cls-2" points="39.24 52.04 44.11 47.17 57.53 47.17 62.4 52.04 39.24 52.04"/><path class="cls-2" d="M44.11,47.17H57.53V40.53a6.72,6.72,0,0,0-6.71-6.71h0a6.71,6.71,0,0,0-6.71,6.71Z"/><line class="cls-2" x1="39.24" y1="64.8" x2="43.86" y2="64.8"/><line class="cls-2" x1="57.78" y1="64.8" x2="62.4" y2="64.8"/><polyline class="cls-2" points="39.24 52.04 39.24 44.68 44.11 40.53 44.11 27.02 57.53 27.02 57.53 41.43"/><polyline class="cls-2" points="62.52 52.04 62.52 44.68 57.65 40.53"/></svg>