<svg id="Capa_1" data-name="Capa 1" xmlns="http://www.w3.org/2000/svg" viewBox="0 0 101.64 91.74"><defs><style>.cls-1,.cls-2,.cls-3{fill:none;stroke:#595959;}.cls-1{stroke-miterlimit:10;stroke-width:5.59px;}.cls-2,.cls-3{stroke-linecap:round;stroke-linejoin:round;}.cls-2{stroke-width:2.52px;}.cls-3{stroke-width:1.26px;}</style></defs><title>losooso</title><rect class="cls-1" x="8.67" y="8.67" width="84.3" height="74.4"/><rect class="cls-2" x="43.61" y="60.71" width="3.39" height="6.26" transform="translate(90.61 127.68) rotate(-180)"/><rect class="cls-2" x="54.71" y="60.71" width="3.39" height="6.26" transform="translate(112.81 127.68) rotate(-180)"/><ellipse class="cls-2" cx="50.82" cy="38.72" rx="16.39" ry="3.19"/><path class="cls-2" d="M67.21,38.72v8c0,7.71-5,14-11.21,14H45.64c-6.19,0-11.21-6.25-11.21-14v-8"/><line class="cls-3" x1="43.78" y1="46.34" x2="45.31" y2="47.87"/><line class="cls-3" x1="45.31" y1="46.34" x2="43.78" y2="47.87"/><line class="cls-3" x1="43.78" y1="53.69" x2="45.31" y2="55.21"/><line class="cls-3" x1="45.31" y1="53.69" x2="43.78" y2="55.21"/><line class="cls-3" x1="57.01" y1="46.34" x2="58.54" y2="47.87"/><line class="cls-3" x1="58.54" y1="46.34" x2="57.01" y2="47.87"/><line class="cls-3" x1="57.01" y1="53.69" x2="58.54" y2="55.21"/><line class="cls-3" x1="58.54" y1="53.69" x2="57.01" y2="55.21"/><line class="cls-3" x1="47.93" y1="37.93" x2="52.93" y2="39.41"/><line class="cls-3" x1="52.93" y1="37.93" x2="47.93" y2="39.41"/></svg>