<svg id="Capa_1" data-name="Capa 1" xmlns="http://www.w3.org/2000/svg" viewBox="0 0 101.64 91.74"><defs><style>.cls-1,.cls-2,.cls-3{fill:none;stroke:#595959;}.cls-1{stroke-miterlimit:10;stroke-width:5.59px;}.cls-2,.cls-3{stroke-linecap:round;stroke-linejoin:round;}.cls-2{stroke-width:1.26px;}.cls-3{stroke-width:2.52px;}</style></defs><title>losooso</title><rect class="cls-1" x="8.67" y="8.67" width="84.3" height="74.4"/><line class="cls-2" x1="49.29" y1="39.52" x2="50.82" y2="41.05"/><line class="cls-2" x1="50.82" y1="39.52" x2="49.29" y2="41.05"/><path class="cls-3" d="M77.83,35.53V66.3H72.11V56a10.42,10.42,0,0,0-3-7.36h0a10.42,10.42,0,0,0-7.36-3H40.76a10.43,10.43,0,0,0-7.36,3h0a10.41,10.41,0,0,0-3,7.36V66.3H24.63V35.53Z"/><path class="cls-3" d="M24.63,35.53l5.3-4a7,7,0,0,1,4.14-1.37H69.66a7,7,0,0,1,4.9,2l3.28,3.29"/><line class="cls-2" x1="47.03" y1="40.28" x2="33.57" y2="40.28"/><line class="cls-2" x1="66.98" y1="40.28" x2="53.52" y2="40.28"/><line class="cls-3" x1="24.63" y1="60.71" x2="30.36" y2="60.71"/><line class="cls-3" x1="72.11" y1="60.71" x2="77.83" y2="60.71"/></svg>