<svg id="Capa_1" data-name="Capa 1" xmlns="http://www.w3.org/2000/svg" viewBox="0 0 101.64 91.74"><defs><style>.cls-1,.cls-2,.cls-3{fill:none;stroke:#566567;}.cls-1{stroke-miterlimit:10;stroke-width:5.59px;}.cls-2,.cls-3{stroke-linecap:round;stroke-linejoin:round;}.cls-2{stroke-width:2px;}</style></defs><title>iconosweb_Hover</title><rect class="cls-1" x="8.67" y="8.67" width="84.3" height="74.4"/><rect class="cls-2" x="30.87" y="21.49" width="43.35" height="47.69"/><line class="cls-2" x1="30.87" y1="56.34" x2="74.23" y2="56.34"/><line class="cls-2" x1="30.87" y1="52.57" x2="74.23" y2="52.57"/><line class="cls-2" x1="30.87" y1="41.41" x2="74.23" y2="41.41"/><line class="cls-2" x1="30.87" y1="37.63" x2="74.23" y2="37.63"/><line class="cls-2" x1="30.87" y1="25.27" x2="74.23" y2="25.27"/><line class="cls-2" x1="30.87" y1="21.49" x2="74.23" y2="21.49"/><line class="cls-2" x1="52.55" y1="69.17" x2="52.55" y2="56.34"/><line class="cls-3" x1="40.85" y1="61.93" x2="42.37" y2="63.45"/><line class="cls-3" x1="42.37" y1="61.93" x2="40.85" y2="63.45"/><line class="cls-3" x1="63.2" y1="61.93" x2="64.72" y2="63.45"/><line class="cls-3" x1="64.72" y1="61.93" x2="63.2" y2="63.45"/><rect class="cls-2" x="40.05" y="44.67" width="3.59" height="7.89"/><rect class="cls-2" x="36.46" y="44.67" width="3.59" height="7.89"/><rect class="cls-2" x="43.64" y="44.67" width="3.59" height="7.89"/><rect class="cls-2" x="47.23" y="44.67" width="3.59" height="7.89"/><rect class="cls-2" x="57.81" y="29.74" width="3.59" height="7.89"/><rect class="cls-2" x="61.4" y="29.74" width="3.59" height="7.89"/><rect class="cls-2" x="64.99" y="29.74" width="3.59" height="7.89"/><rect class="cls-2" x="61.4" y="46.47" width="3.59" height="7.89" transform="translate(12.78 113.61) rotate(-90)"/><rect class="cls-2" x="61.4" y="42.88" width="3.59" height="7.89" transform="translate(16.37 110.02) rotate(-90)"/><rect class="cls-2" x="40.58" y="31.89" width="3.59" height="7.89" transform="translate(6.54 78.21) rotate(-90)"/><rect class="cls-2" x="40.58" y="28.3" width="3.59" height="7.89" transform="translate(10.13 74.62) rotate(-90)"/></svg>