<svg id="Capa_1" data-name="Capa 1" xmlns="http://www.w3.org/2000/svg" viewBox="0 0 101.64 91.74"><defs><style>.cls-1{fill:none;stroke:#595959;stroke-linecap:round;stroke-linejoin:round;stroke-width:3px;}.cls-2{fill:#595959;}</style></defs><title>iconosweb</title><circle class="cls-1" cx="50.82" cy="45.87" r="26.7"/><ellipse class="cls-2" cx="40.54" cy="38.08" rx="5.14" ry="6.43"/><ellipse class="cls-2" cx="61.79" cy="38.08" rx="5.14" ry="6.43"/><path class="cls-2" d="M41.4,49.6a7.13,7.13,0,0,0,4.25,3,18.32,18.32,0,0,0,5.17.6A18.58,18.58,0,0,0,56,52.62a7.11,7.11,0,0,0,4.25-3,4.75,4.75,0,0,1-.86,3,7.27,7.27,0,0,1-2.43,2.18,12.27,12.27,0,0,1-6.12,1.45,12.38,12.38,0,0,1-6.12-1.46,7.06,7.06,0,0,1-2.43-2.18A4.77,4.77,0,0,1,41.4,49.6Z"/><rect class="cls-1" x="6.49" y="8.37" width="88.66" height="75"/></svg>