<svg id="Capa_1" data-name="Capa 1" xmlns="http://www.w3.org/2000/svg" viewBox="0 0 101.64 91.74"><defs><style>.cls-1{fill:none;stroke:#595959;stroke-linecap:round;stroke-linejoin:round;stroke-width:3px;}.cls-2{fill:#595959;}</style></defs><title>iconosweb</title><circle class="cls-1" cx="50.82" cy="45.87" r="26.7"/><ellipse class="cls-2" cx="40.54" cy="40.81" rx="5.14" ry="6.43"/><ellipse class="cls-2" cx="61.79" cy="40.81" rx="5.14" ry="6.43"/><path class="cls-2" d="M37.39,56a2.77,2.77,0,0,1,.42-2,6.12,6.12,0,0,1,1.42-1.58,13.06,13.06,0,0,1,3.62-2,23.65,23.65,0,0,1,8-1.33,23.3,23.3,0,0,1,8,1.33,12.72,12.72,0,0,1,3.63,2A6.12,6.12,0,0,1,63.83,54a2.77,2.77,0,0,1,.41,2,4,4,0,0,0-2.6-2.34,16.37,16.37,0,0,0-3.49-1,41.75,41.75,0,0,0-7.33-.6,41.68,41.68,0,0,0-7.33.6,15.89,15.89,0,0,0-3.5,1A4.05,4.05,0,0,0,37.39,56Z"/><path class="cls-2" d="M56.23,26.24a4.72,4.72,0,0,1-.76,4.66,5.94,5.94,0,0,1-9.31,0,4.69,4.69,0,0,1-.75-4.66,6.85,6.85,0,0,0,2.42,3,5.34,5.34,0,0,0,6,0A6.74,6.74,0,0,0,56.23,26.24Z"/><rect class="cls-1" x="6.49" y="8.37" width="88.66" height="75"/></svg>