<svg id="Capa_1" data-name="Capa 1" xmlns="http://www.w3.org/2000/svg" viewBox="0 0 101.64 91.74"><defs><style>.cls-1{fill:none;stroke:#566567;stroke-linecap:round;stroke-linejoin:round;stroke-width:3px;}</style></defs><title>iconosweb_Hover</title><path class="cls-1" d="M51.82,73.67a37.31,37.31,0,0,0,1.92-4.4,7.86,7.86,0,0,0-4-10c-1.56-.79-3.17-1.48-4.77-2.16a2.63,2.63,0,0,1-1.72-2.54C43.07,47.34,45.86,41.32,51,36.3a3.11,3.11,0,0,1,4-.57,32.77,32.77,0,0,0,4.61,2,8,8,0,0,0,9.15-2.79,19,19,0,0,0,2.93-6.54,7.6,7.6,0,0,0-3.71-8.58,70.13,70.13,0,0,0-7.37-3.25,7.65,7.65,0,0,0-4.3-.22,20,20,0,0,0-9.94,5.59c-7.59,7.22-12.19,16.21-15.06,26.15C29.5,54.12,28.58,60.27,30,66.55c.64,2.8,1.74,5.38,4,7.14a41.26,41.26,0,0,0,10.49,4.36A7.77,7.77,0,0,0,51.82,73.67Z"/><path class="cls-1" d="M27.37,82.19c-1.06-.68-2.09-1.41-3.08-2.19a43.21,43.21,0,1,1,19.94,8.6,10.63,10.63,0,0,1-3.83-1.31c-2.67-1.56-6.44-3.84-3.1-11"/></svg>