<svg id="Capa_1" data-name="Capa 1" xmlns="http://www.w3.org/2000/svg" viewBox="0 0 101.64 91.74"><defs><style>.cls-1{fill:none;stroke:#566567;stroke-linecap:round;stroke-linejoin:round;stroke-width:3px;}.cls-2{fill:#566567;}</style></defs><title>iconosweb_Hover</title><rect class="cls-1" x="6.49" y="8.37" width="88.66" height="75"/><path class="cls-1" d="M79.17,40.14v27.1a4.46,4.46,0,0,1-4.68,4.21H27.15a4.47,4.47,0,0,1-4.69-4.21V40.14a4.47,4.47,0,0,1,4.69-4.22H74.49A4.47,4.47,0,0,1,79.17,40.14Z"/><path class="cls-2" d="M56.36,50a5.54,5.54,0,1,0-8.66,4.57v5.29a3.12,3.12,0,0,0,6.24,0V54.54A5.53,5.53,0,0,0,56.36,50Z"/><path class="cls-1" d="M34.07,35.92a16.75,16.75,0,1,1,33.5,0"/><path class="cls-1" d="M40,35.92a10.79,10.79,0,0,1,21.57,0"/></svg>