<svg id="Capa_1" data-name="Capa 1" xmlns="http://www.w3.org/2000/svg" viewBox="0 0 101.64 91.74"><defs><style>.cls-1{fill:none;stroke:#595959;stroke-linecap:round;stroke-linejoin:round;stroke-width:3px;}</style></defs><title>iconosweb</title><path class="cls-1" d="M75.11,61H39.72a5.79,5.79,0,0,1-4.08-1.69h0A5.8,5.8,0,0,1,34,56.17l-6.2-37.58A4.6,4.6,0,0,0,26.1,15.7h0a4.55,4.55,0,0,0-2.79-.95H19"/><path class="cls-1" d="M28.27,21.26h44A6.36,6.36,0,0,1,77,23.39h0a6.39,6.39,0,0,1,1.52,5.31l-3,17.71a5.33,5.33,0,0,1-2.22,3.48h0a5.39,5.39,0,0,1-2.65.93L33.75,54.48"/><circle class="cls-1" cx="38.94" cy="70.23" r="3.55"/><circle class="cls-1" cx="70.15" cy="70.23" r="3.55"/><rect class="cls-1" x="8.17" y="5.12" width="85.29" height="81.49" rx="7.04"/></svg>