<svg id="Capa_1" data-name="Capa 1" xmlns="http://www.w3.org/2000/svg" viewBox="0 0 101.64 91.74"><defs><style>.cls-1{fill:none;stroke:#566567;stroke-linecap:round;stroke-linejoin:round;stroke-width:3px;}</style></defs><title>iconosweb_Hover</title><polygon class="cls-1" points="21.6 31.73 21.6 62.91 48.97 73.64 48.97 41.27 21.6 31.73"/><polygon class="cls-1" points="76.33 31.73 76.33 62.91 48.97 73.64 48.97 41.27 76.33 31.73"/><polygon class="cls-1" points="21.6 31.73 48.97 22.61 76.33 31.73 48.97 41.27 21.6 31.73"/><polygon class="cls-1" points="29.84 34.57 42.49 30.29 52.31 33.92 40.88 38.45 40.88 52.69 29.84 47.97 29.84 34.57"/><line class="cls-1" x1="63.97" y1="45.11" x2="95.74" y2="31.88"/><line class="cls-1" x1="70.15" y1="49.15" x2="85.91" y2="42.59"/><path class="cls-1" d="M91.75,40.88a43,43,0,1,1-4-13.85"/></svg>