<svg id="Capa_1" data-name="Capa 1" xmlns="http://www.w3.org/2000/svg" viewBox="0 0 101.64 91.74"><defs><style>.cls-1{fill:none;stroke:#727271;stroke-linecap:round;stroke-linejoin:round;stroke-width:2px;}.cls-2{fill:#727271;}</style></defs><title>iconosweb_Hover</title><path class="cls-1" d="M40.53,51.17a13.61,13.61,0,0,1,13.6,13.61"/><path class="cls-1" d="M40.53,43.24A21.54,21.54,0,0,1,62.06,64.78"/><path class="cls-1" d="M40.53,36.35A28.42,28.42,0,0,1,69,64.78"/><circle class="cls-2" cx="45.94" cy="60.12" r="3.1"/><rect class="cls-1" x="27.34" y="31.76" width="7.83" height="24.78"/><rect class="cls-1" x="27.34" y="56.53" width="7.83" height="4.52"/><path class="cls-1" d="M27.34,61.05h7.83a0,0,0,0,1,0,0v4a2.33,2.33,0,0,1-2.33,2.33H29.67A2.33,2.33,0,0,1,27.34,65v-4a0,0,0,0,1,0,0Z"/><polygon class="cls-1" points="31.25 24.46 27.46 31.64 35.05 31.64 31.25 24.46"/><line class="cls-1" x1="31.25" y1="31.76" x2="31.25" y2="38.65"/><line class="cls-1" x1="31.25" y1="48.66" x2="31.25" y2="55.56"/><polyline class="cls-1" points="39.98 27.39 39.98 65.52 74.5 65.52"/><circle class="cls-2" cx="44.83" cy="27.65" r="1.11"/><circle class="cls-2" cx="49.68" cy="27.65" r="1.11"/><circle class="cls-2" cx="54.54" cy="27.65" r="1.11"/><circle class="cls-2" cx="59.39" cy="27.65" r="1.11"/><circle class="cls-2" cx="64.24" cy="27.65" r="1.11"/><circle class="cls-2" cx="69.1" cy="27.65" r="1.11"/><circle class="cls-2" cx="73.95" cy="27.65" r="1.11"/><circle class="cls-2" cx="73.95" cy="31.91" r="1.11"/><circle class="cls-2" cx="73.95" cy="36.77" r="1.11"/><circle class="cls-2" cx="73.95" cy="41.62" r="1.11"/><circle class="cls-2" cx="73.95" cy="46.47" r="1.11"/><circle class="cls-2" cx="73.95" cy="51.33" r="1.11"/><circle class="cls-2" cx="73.95" cy="56.18" r="1.11"/><circle class="cls-2" cx="73.95" cy="61.03" r="1.11"/><circle class="cls-1" cx="50.82" cy="45.87" r="39.78"/></svg>