<svg id="Capa_1" data-name="Capa 1" xmlns="http://www.w3.org/2000/svg" viewBox="0 0 101.64 91.74"><defs><style>.cls-1{fill:#727271;}.cls-2{fill:none;stroke:#727271;stroke-linecap:round;stroke-linejoin:round;stroke-width:2px;}</style></defs><title>iconosweb_Hover</title><path class="cls-1" d="M68.72,63.09h-13a.86.86,0,0,0-.68.31,5.8,5.8,0,0,1-1.43,1.13,6.93,6.93,0,0,1-2.51.74,5.52,5.52,0,0,1-2.31-.36,5.58,5.58,0,0,1-2.16-1.34s0,0,0,0c-.27-.49-.73-.44-1.18-.44H19.75c-.43,0-.44,0-.41-.46.06-.85.07-1.71.19-2.55s.13-1.77.26-2.65c.16-1.13.16-2.27.29-3.4.1-.89.13-1.78.25-2.67.18-1.29.24-2.59.35-3.88.09-1,.15-2,.28-3s.14-2.21.3-3.3.16-1.91.25-2.87.19-2.06.31-3.08S22,33,22.1,31.8c0-.21.13-.24.31-.24H23.8c.24,0,.31-.09.33-.32.15-1.22.24-2.45.32-3.67,0-.19.08-.28.28-.27h1.45c.21,0,.27-.07.3-.28.12-1,.19-1.95.26-2.93,0-.28.11-.56.11-.85s.1-.23.26-.24a25.26,25.26,0,0,1,3.26.09c.79.08,1.58.07,2.36.2,1,.18,2.09.21,3.12.43.69.14,1.4.22,2.08.4,1,.25,1.9.45,2.83.77.72.25,1.47.45,2.18.73s1.41.59,2.09.94,1.18.63,1.76,1,1.07.71,1.59,1.08a14.6,14.6,0,0,1,2.21,2c.15.17.26.1.38,0a12.3,12.3,0,0,1,1.78-1.68,21.91,21.91,0,0,1,2.53-1.7c1-.59,2.1-1.05,3.16-1.54a10.24,10.24,0,0,1,1.1-.39c.83-.27,1.66-.55,2.5-.79.6-.17,1.22-.26,1.82-.41.84-.22,1.7-.33,2.55-.5.45-.08.9-.08,1.35-.16,1-.16,1.93-.16,2.9-.27,1.2-.14,2.41-.13,3.62-.15.28,0,.37.1.41.38.12,1,.18,2,.25,2.94,0,.26.12.51.12.78s.14.2.28.2h1.42c.23,0,.31.08.32.3.06.9.11,1.8.2,2.7a8.77,8.77,0,0,1,.12,1c0,.19.14.23.3.23.47,0,1,0,1.42,0,.22,0,.29.07.3.27.06.94.08,1.89.21,2.82s.1,1.76.25,2.63c.18,1.09.14,2.21.3,3.3s.14,2.39.31,3.57.15,2.19.3,3.27.11,1.92.26,2.87.14,2.13.3,3.18.15,2.41.31,3.6c.12.82.12,1.66.25,2.47.15,1,.16,1.94.26,2.91,0,0,0,.06,0,.09.06.54,0,.56-.49.56ZM49.64,46.38v-13c0-.17,0-.37-.07-.51a7,7,0,0,0-.74-.89A17,17,0,0,0,47,30.38a18.42,18.42,0,0,0-2.46-1.54q-1-.54-2.13-1c-1-.39-2-.72-2.94-1-.61-.18-1.24-.34-1.87-.48-.41-.09-.83-.15-1.23-.25-.9-.22-1.83-.34-2.75-.47-.64-.08-1.29-.06-1.93-.16a16.58,16.58,0,0,0-2.54-.15c-.09,0-.19,0-.21.13a6.5,6.5,0,0,0-.12.75c-.05,1.07-.19,2.12-.29,3.18s-.15,2.06-.28,3.09-.12,2.06-.27,3.08-.15,1.79-.27,2.69c-.15,1.11-.14,2.24-.29,3.36s-.17,2.36-.32,3.55-.19,2.65-.35,4c0,.3,0,.61-.07.92l-.21,2.07c0,.25,0,.35.31.36a34.3,34.3,0,0,1,3.64.28c.76.14,1.54.15,2.31.31s1.83.35,2.73.57c1.06.26,2.11.53,3.15.88s2,.66,2.94,1c.32.13.73.09.95.43h0a4.52,4.52,0,0,1,.85.36,12.68,12.68,0,0,1,1.49.7c.75.42,1.51.8,2.25,1.23s1.47.89,2.2,1.34c.1.06.18.21.3.15s0-.21,0-.32Q49.65,52.92,49.64,46.38Zm15.68,7.2a.4.4,0,0,0,.49.11c.79-.24,1.62-.32,2.42-.52a26.91,26.91,0,0,1,3.34-.5c1-.14,2.1-.15,3.16-.19.28,0,.4-.1.35-.38-.06-.47-.09-.94-.16-1.4-.12-.91-.12-1.84-.25-2.75-.16-1.11-.14-2.24-.3-3.36s-.15-2.33-.31-3.49-.12-2.33-.32-3.48c-.13-.82-.12-1.65-.23-2.47-.16-1.15-.15-2.31-.31-3.45s-.15-2.31-.32-3.46c-.12-.86-.08-1.73-.24-2.59,0-.26-.12-.35-.38-.34-.86,0-1.71.09-2.57.16a38.09,38.09,0,0,0-4.52.63c-.81.17-1.61.37-2.41.56s-1.65.49-2.46.75a6.32,6.32,0,0,0-.95.34c-.71.34-1.44.63-2.14,1a21.77,21.77,0,0,0-2.28,1.36,13.88,13.88,0,0,0-2.54,2.24,1.78,1.78,0,0,0-.52,1.25q0,12.45,0,24.89c0,.35,0,.7,0,1,0,.09,0,.21.06.25s.16-.06.23-.12c.35-.23.7-.46,1.06-.67.58-.35,1.18-.68,1.76-1s1.29-.67,1.92-1,1.09-.48,1.62-.74c.75-.37,1.53-.67,2.31-1a2.77,2.77,0,0,0,1.1-.64c0-.06.08-.17.2-.12,0,.16-.28.19-.28.38.22,0,.35-.14.52-.19.57-.16,1.13-.36,1.71-.51a3.38,3.38,0,0,1,.68-.19C64.94,53.94,65.28,54,65.32,53.58ZM43.49,58.94c-.12-.2-.27-.21-.4-.27-.5-.23-1-.42-1.5-.67-.79-.4-1.63-.66-2.45-1s-1.55-.47-2.33-.71a27.31,27.31,0,0,0-3.32-.83c-.84-.16-1.67-.33-2.5-.46-1-.17-2-.18-3-.29a27.69,27.69,0,0,0-3.41-.09.27.27,0,0,0-.29.21,7.47,7.47,0,0,0-.16,1.49c0,.25.08.35.33.36.53,0,1.05,0,1.58.11,1.34.14,2.7.1,4,.32.7.12,1.42.11,2.13.23,1,.17,2,.17,3,.32s1.83.21,2.73.38c.17,0,.32-.06.48,0a4,4,0,0,0,.76.19c.92.07,1.82.3,2.73.41C42.38,58.71,42.9,58.85,43.49,58.94Zm16.36-.64c.13.06,0,.34.26.25a3.44,3.44,0,0,1,1-.15c1.15-.13,2.3-.32,3.45-.51.8-.13,1.61-.17,2.41-.3s1.89-.18,2.83-.3,1.83-.22,2.75-.28L77,56.7h.16c.2,0,.3-.09.29-.31,0-.42,0-.84-.08-1.26s-.12-.49-.57-.48c-1.24,0-2.47,0-3.71.15a37,37,0,0,0-4.34.56c-.73.15-1.47.26-2.2.44s-1.74.49-2.62.73-1.42.53-2.16.74a8,8,0,0,0-1.19.47c-.44.21-.91.39-1.37.59-.2.08-.28.3-.13.36a1.25,1.25,0,0,0,.66,0C59.91,58.61,59.85,58.43,59.85,58.3Zm0,2.54a.94.94,0,0,0,.47.06H79.53c.18,0,.26-.07.25-.26,0-.39,0-.78-.09-1.17s-.11-.58-.65-.57a47.81,47.81,0,0,0-5.61.29c-.81.11-1.63.11-2.44.23-1,.16-2,.18-3,.31s-2.3.27-3.44.44-2.09.25-3.12.47C60.9,60.74,60.41,60.76,59.84,60.84Zm-18.3.06a16.4,16.4,0,0,0-2.07-.39c-1.25-.21-2.51-.35-3.76-.55-.85-.14-1.72-.17-2.58-.31-1-.16-2-.18-3.05-.3s-2.12-.22-3.18-.29L25.58,59c-1.13-.05-2.25-.11-3.38-.09-.16,0-.22.05-.28.21a6.42,6.42,0,0,0-.15,1.31c-.07.46,0,.48.44.48H41.54Z"/><circle class="cls-2" cx="50.82" cy="45.87" r="39.78"/></svg>