<svg id="Capa_1" data-name="Capa 1" xmlns="http://www.w3.org/2000/svg" viewBox="0 0 101.64 91.74"><defs><style>.cls-1{fill:none;stroke:#727271;stroke-linecap:round;stroke-linejoin:round;stroke-width:2px;}</style></defs><title>iconosweb_Hover</title><circle class="cls-1" cx="50.82" cy="45.87" r="39.78"/><path class="cls-1" d="M25.85,40.58h4.84a0,0,0,0,1,0,0V57.43a0,0,0,0,1,0,0H25.85A3.44,3.44,0,0,1,22.41,54V44a3.44,3.44,0,0,1,3.44-3.44Z"/><path class="cls-1" d="M30.69,40.93h3.19a0,0,0,0,1,0,0V56.11a1.32,1.32,0,0,1-1.32,1.32H30.69a0,0,0,0,1,0,0V40.93a0,0,0,0,1,0,0Z"/><path class="cls-1" d="M74.39,40.58h4.84a0,0,0,0,1,0,0V57.43a0,0,0,0,1,0,0H74.39A3.44,3.44,0,0,1,71,54V44A3.44,3.44,0,0,1,74.39,40.58Z" transform="translate(150.18 98.01) rotate(-180)"/><path class="cls-1" d="M67.76,40.93h1.86A1.32,1.32,0,0,1,71,42.25V57.43a0,0,0,0,1,0,0H67.76a0,0,0,0,1,0,0V40.93A0,0,0,0,1,67.76,40.93Z" transform="translate(138.71 98.36) rotate(180)"/><path class="cls-1" d="M71,40.93a20.13,20.13,0,0,0-40.26,0h3.19a16.94,16.94,0,0,1,33.88,0Z"/><rect class="cls-1" x="45.4" y="60.85" width="9.22" height="6.65" rx="1.32"/><polyline class="cls-1" points="71.69 57.43 71.69 62.85 54.62 62.85 54.62 66.04 71.69 66.04 74.55 66.04 74.55 62.85 74.55 57.43"/></svg>