<svg id="Capa_1" data-name="Capa 1" xmlns="http://www.w3.org/2000/svg" viewBox="0 0 101.64 91.74"><defs><style>.cls-1{fill:none;stroke:#727271;stroke-linecap:round;stroke-linejoin:round;stroke-width:2px;}.cls-2{fill:#727271;}</style></defs><title>iconosweb_Hover</title><circle class="cls-1" cx="43.77" cy="44.9" r="21.49"/><ellipse class="cls-2" cx="35.49" cy="38.63" rx="4.14" ry="5.18"/><ellipse class="cls-2" cx="52.6" cy="38.63" rx="4.14" ry="5.18"/><ellipse class="cls-2" cx="43.77" cy="48.7" rx="4.5" ry="3.94"/><path class="cls-1" d="M64.26,68.08a4.65,4.65,0,0,1-1.51-3.48,4.73,4.73,0,0,1,1.47-3.46A5.16,5.16,0,0,1,68,59.67a5.24,5.24,0,0,1,3.73,1.43,4.63,4.63,0,0,1,1.51,3.5,4.75,4.75,0,0,1-1.47,3.46A5.11,5.11,0,0,1,68,69.53,5.28,5.28,0,0,1,64.26,68.08Zm.31-17.66a5.25,5.25,0,0,1,.51-2.26,7.73,7.73,0,0,1,1.32-2c.55-.58,1.16-1.17,1.83-1.76s1.33-1.17,2-1.77A22.16,22.16,0,0,0,72,40.84a8.06,8.06,0,0,0,1.32-2.11,6.09,6.09,0,0,0,.51-2.46q0-5.27-6.18-5.27a23.93,23.93,0,0,0-3.37.41,25.92,25.92,0,0,1-2.93.4,2.08,2.08,0,0,1-1.66-.75,2.84,2.84,0,0,1-.64-1.9,2.61,2.61,0,0,1,.53-1.58,2.94,2.94,0,0,1,1.56-1,28.16,28.16,0,0,1,8-1.15,16.12,16.12,0,0,1,4.47.59,11.17,11.17,0,0,1,3.66,1.8,8.11,8.11,0,0,1,2.53,3.25,11.37,11.37,0,0,1,.91,4.71,9.59,9.59,0,0,1-.59,3.34,9.94,9.94,0,0,1-1.51,2.73A20.18,20.18,0,0,1,76.56,44c-.76.69-1.52,1.32-2.27,1.88S72.85,47,72.23,47.56a7.74,7.74,0,0,0-1.51,1.67A3.15,3.15,0,0,0,70.14,51l0,2.28a2.17,2.17,0,0,1-.81,1.84,3,3,0,0,1-2,.67,3.72,3.72,0,0,1-.81-.09,3.12,3.12,0,0,1-.76-.31,2.43,2.43,0,0,1-.63-.52,2.57,2.57,0,0,1-.44-.72,2.32,2.32,0,0,1-.17-.92Z"/><circle class="cls-1" cx="50.82" cy="45.87" r="39.78"/></svg>