<svg id="Capa_1" data-name="Capa 1" xmlns="http://www.w3.org/2000/svg" viewBox="0 0 101.64 91.74"><defs><style>.cls-1{fill:none;stroke:#fff;stroke-linecap:round;stroke-linejoin:round;stroke-width:2px;}</style></defs><title>iconosweb</title><circle class="cls-1" cx="43.46" cy="40.6" r="16.34"/><circle class="cls-1" cx="43.46" cy="40.6" r="11.56"/><polyline class="cls-1" points="57.73 48.58 61.14 51.23 57.76 55.57 54.27 52.86"/><path class="cls-1" d="M64.37,49.65h5.5a0,0,0,0,1,0,0v18a1.48,1.48,0,0,1-1.48,1.48H65.84a1.48,1.48,0,0,1-1.48-1.48v-18a0,0,0,0,1,0,0Z" transform="translate(-20.96 75.85) rotate(-52.1)"/><line class="cls-1" x1="40.48" y1="35.18" x2="39.24" y2="46.03"/><line class="cls-1" x1="45.66" y1="33.15" x2="43.65" y2="48.7"/><rect class="cls-1" x="21.11" y="19.97" width="59.41" height="51.79"/><circle class="cls-1" cx="50.82" cy="45.87" r="39.78"/></svg>