<svg id="Capa_1" data-name="Capa 1" xmlns="http://www.w3.org/2000/svg" viewBox="0 0 101.64 91.74"><defs><style>.cls-1{fill:#fff;}.cls-2{fill:none;stroke:#fff;stroke-linecap:round;stroke-linejoin:round;stroke-width:2px;}</style></defs><title>iconosweb</title><ellipse class="cls-1" cx="38.53" cy="38.84" rx="4.14" ry="5.18"/><ellipse class="cls-1" cx="55.64" cy="38.84" rx="4.14" ry="5.18"/><path class="cls-1" d="M39.23,48.11a5.6,5.6,0,0,0,3.35,2.59,14.07,14.07,0,0,0,4.23.54A14,14,0,0,0,51,50.7a5.64,5.64,0,0,0,3.35-2.59,4.68,4.68,0,0,1-2.71,4,10,10,0,0,1-4.86,1.12A10,10,0,0,1,42,52.12,4.7,4.7,0,0,1,39.23,48.11Z"/><path class="cls-2" d="M66.63,36.81a21.49,21.49,0,1,0,1.28,12.35Z"/><path class="cls-2" d="M65.71,27.91v-.15a.41.41,0,0,0,0-.16,1,1,0,0,1,0-.16,3.83,3.83,0,0,1,1.57-3.24,6.42,6.42,0,0,1,7.39,0,3.81,3.81,0,0,1,1.57,3.24,2.42,2.42,0,0,1,0,.47L73.54,53.27a3.19,3.19,0,0,1-.89,2,2.43,2.43,0,0,1-1.73.7,2.38,2.38,0,0,1-1.18-.3,2.77,2.77,0,0,1-.93-.91,3.41,3.41,0,0,1-.48-1.49ZM67.3,68.28a4.62,4.62,0,0,1-1.51-3.47,4.73,4.73,0,0,1,1.47-3.46,5.16,5.16,0,0,1,3.82-1.47,5.24,5.24,0,0,1,3.73,1.43,4.63,4.63,0,0,1,1.51,3.5,4.75,4.75,0,0,1-1.47,3.46,5.11,5.11,0,0,1-3.77,1.47A5.25,5.25,0,0,1,67.3,68.28Z"/><circle class="cls-2" cx="50.82" cy="45.87" r="39.78"/></svg>