<svg id="Capa_1" data-name="Capa 1" xmlns="http://www.w3.org/2000/svg" viewBox="0 0 16.14 16.45"><defs><style>.cls-1{fill:#adadad;}</style></defs><title>iconosweb</title><path class="cls-1" d="M11.39,6.42h-.28A3,3,0,0,0,5,6.42H4.75a.66.66,0,0,0-.66.66v4.26a.65.65,0,0,0,.66.66h6.64a.65.65,0,0,0,.66-.66V7.08A.66.66,0,0,0,11.39,6.42ZM8.07,4.57A2,2,0,0,1,10,6.42H6.12A2,2,0,0,1,8.07,4.57Zm.48,4.66v.82a.48.48,0,1,1-1,0V9.23a.84.84,0,0,1-.38-.7.86.86,0,0,1,1.72,0A.84.84,0,0,1,8.55,9.23Z"/><path class="cls-1" d="M8.07,15.82a7.6,7.6,0,1,1,7.6-7.59A7.6,7.6,0,0,1,8.07,15.82Zm0-14.32A6.73,6.73,0,1,0,14.8,8.23,6.74,6.74,0,0,0,8.07,1.5Z"/></svg>