<svg id="Capa_1" data-name="Capa 1" xmlns="http://www.w3.org/2000/svg" viewBox="0 0 16.14 16.45"><defs><style>.cls-1{fill:#595959;}</style></defs><title>iconosweb</title><path class="cls-1" d="M8.07,15.82a7.6,7.6,0,1,1,7.6-7.59A7.6,7.6,0,0,1,8.07,15.82Zm0-14.32A6.73,6.73,0,1,0,14.8,8.23,6.74,6.74,0,0,0,8.07,1.5Z"/><path class="cls-1" d="M4.54,5.37,8.05,4.21h0L11.6,5.37a.07.07,0,0,1,0,.14L8.09,6.73h0L4.54,5.51A.07.07,0,0,1,4.54,5.37Z"/><path class="cls-1" d="M3.63,6v4.58a.08.08,0,0,0,.05.07l4.06,1.59V7.39a.08.08,0,0,0,0-.07l-4-1.38A.07.07,0,0,0,3.63,6Z"/><path class="cls-1" d="M8.41,7.39v4.86l4.05-1.59a.08.08,0,0,0,0-.07V6a.07.07,0,0,0-.1-.07l-4,1.38A.08.08,0,0,0,8.41,7.39Z"/></svg>