<svg id="Capa_1" data-name="Capa 1" xmlns="http://www.w3.org/2000/svg" viewBox="0 0 101.64 91.74"><defs><style>.cls-1,.cls-2,.cls-3{fill:none;}.cls-1,.cls-2,.cls-3,.cls-4{stroke:#595959;}.cls-1{stroke-miterlimit:10;stroke-width:5.59px;}.cls-2,.cls-3,.cls-4{stroke-linecap:round;stroke-linejoin:round;}.cls-2,.cls-4{stroke-width:2.52px;}.cls-3{stroke-width:2.52px;}.cls-4{fill:#fff;}</style></defs><title>sasa</title><rect class="cls-1" x="8.67" y="8.67" width="84.3" height="74.4"/><rect class="cls-2" x="19.63" y="61.84" width="4.22" height="5.13"/><rect class="cls-3" x="28.42" y="53.95" width="4.22" height="5.13"/><rect class="cls-2" x="77.78" y="61.84" width="4.22" height="5.13" transform="translate(159.79 128.81) rotate(-180)"/><rect class="cls-3" x="23.85" y="47.71" width="53.93" height="6.24"/><line class="cls-2" x1="23.85" y1="47.71" x2="21.04" y2="38.44"/><line class="cls-2" x1="77.78" y1="47.71" x2="80.6" y2="38.44"/><rect class="cls-3" x="68.99" y="53.95" width="4.22" height="5.13" transform="translate(142.2 113.03) rotate(-180)"/><path class="cls-2" d="M77.44,37.17H52.94a2.87,2.87,0,0,1-5.63.65,3,3,0,0,1-.08-.65h-23a4.58,4.58,0,0,0-4.57,4.57v20.1h4.22V54H77.78v7.89H82V41.74A4.58,4.58,0,0,0,77.44,37.17Z"/><path class="cls-2" d="M53,29.73H47.22A6.42,6.42,0,0,1,48,34.18,7.49,7.49,0,0,1,47.43,36a2.89,2.89,0,0,0-.12,1.85A2.88,2.88,0,1,0,52.77,36a8.73,8.73,0,0,1-.55-1.87A6.4,6.4,0,0,1,53,29.73Z"/><line class="cls-4" x1="50.09" y1="29.73" x2="50.09" y2="26.44"/><circle class="cls-2" cx="50.09" cy="23.89" r="2.54"/></svg>