<svg id="Capa_1" data-name="Capa 1" xmlns="http://www.w3.org/2000/svg" viewBox="0 0 101.64 91.74"><defs><style>.cls-1,.cls-2{fill:none;stroke:#566567;}.cls-1{stroke-miterlimit:10;stroke-width:5.59px;}.cls-2{stroke-linecap:round;stroke-linejoin:round;stroke-width:2px;}</style></defs><title>iconosweb_Hover</title><rect class="cls-1" x="8.67" y="8.67" width="84.3" height="74.4"/><rect class="cls-2" x="27.44" y="30.58" width="6.33" height="39.04"/><rect class="cls-2" x="67.87" y="30.58" width="6.33" height="39.04"/><rect class="cls-2" x="33.77" y="34.17" width="34.1" height="4.28"/><rect class="cls-2" x="33.77" y="61.84" width="34.1" height="4.28"/><rect class="cls-2" x="48.46" y="34.17" width="3.97" height="31.95"/><path class="cls-2" d="M39,34V28.74a1.57,1.57,0,0,1,.46-1.1l2.35-2.35a1.54,1.54,0,0,0,.45-1.09v-.66A1.54,1.54,0,0,1,43.77,22h0a1.54,1.54,0,0,1,1.54,1.54v.91a1.55,1.55,0,0,0,.46,1.09L48,27.79a1.56,1.56,0,0,1,.45,1.1V34"/><polyline class="cls-2" points="48.46 38.45 33.77 50.09 48.46 61.84"/><polyline class="cls-2" points="33.77 61.84 48.46 50.14 33.77 38.45"/><polyline class="cls-2" points="42.22 24.2 42.22 18.06 45.31 18.06 45.31 24.2"/><line class="cls-2" x1="38.96" y1="28.74" x2="48.47" y2="28.74"/></svg>