<svg id="Capa_1" data-name="Capa 1" xmlns="http://www.w3.org/2000/svg" viewBox="0 0 101.64 91.74"><defs><style>.cls-1,.cls-2,.cls-3{fill:none;stroke:#595959;}.cls-1{stroke-miterlimit:10;stroke-width:5.59px;}.cls-2,.cls-3{stroke-linecap:round;stroke-linejoin:round;}.cls-2{stroke-width:2.52px;}.cls-3{stroke-width:2.04px;}</style></defs><title>sasa</title><rect class="cls-1" x="8.67" y="8.67" width="84.3" height="74.4"/><circle class="cls-2" cx="29.12" cy="55.15" r="4.04"/><path class="cls-2" d="M25.39,53.62l7.72-21.2a2.82,2.82,0,0,1,1.3-1.5h0a2.79,2.79,0,0,1,2.19-.21l.55.18a2.78,2.78,0,0,1,1.92,2.27l.06.4a2.81,2.81,0,0,1-.1,1.22L33,54.17"/><path class="cls-2" d="M29.12,59.19H71.65a2,2,0,0,0,2-1.73l2.52-19.55a2,2,0,0,0-2-2.23h-35"/><path class="cls-2" d="M36.49,46.72l15.27-7.35a.79.79,0,0,1,.76,0l11.35,7.22A.78.78,0,0,1,63.79,48L49.6,55a.79.79,0,0,1-.72,0L36.45,48.1A.78.78,0,0,1,36.49,46.72Z"/><path class="cls-2" d="M43.86,47l7-3.39a.37.37,0,0,1,.34,0l5.23,3.33a.36.36,0,0,1,0,.62l-6.53,3.21a.38.38,0,0,1-.33,0L43.84,47.6A.35.35,0,0,1,43.86,47Z"/><polyline class="cls-2" points="46.38 38.95 41.17 38.95 40.35 41.63"/><polyline class="cls-2" points="44.81 56.03 36.57 56.03 37.45 52.19"/><line class="cls-2" x1="54.77" y1="56.03" x2="70.39" y2="56.03"/><line class="cls-2" x1="57.46" y1="38.95" x2="73.08" y2="38.95"/><line class="cls-2" x1="66.69" y1="42.98" x2="72.19" y2="42.98"/><line class="cls-2" x1="65.86" y1="51.51" x2="70.95" y2="51.51"/><line class="cls-2" x1="68.4" y1="47.37" x2="71.36" y2="47.37"/><path class="cls-3" d="M28.39,53.87a2.39,2.39,0,0,1,2.41,1.34"/></svg>