<svg id="Capa_1" data-name="Capa 1" xmlns="http://www.w3.org/2000/svg" viewBox="0 0 101.64 91.74"><defs><style>.cls-1,.cls-2,.cls-3{fill:none;stroke:#595959;}.cls-1,.cls-3{stroke-miterlimit:10;}.cls-1{stroke-width:5.59px;}.cls-2{stroke-linecap:round;stroke-linejoin:round;}.cls-2,.cls-3{stroke-width:2.52px;}</style></defs><title>sasa</title><rect class="cls-1" x="8.67" y="8.67" width="84.3" height="74.4"/><rect class="cls-2" x="24.53" y="27.45" width="51.81" height="39.17"/><rect class="cls-2" x="28.23" y="31.24" width="44.41" height="31.36"/><path class="cls-3" d="M71.12,62.6H29.31A1,1,0,0,1,28.46,61l9.06-9.06a1.57,1.57,0,0,1,2.2,0L44.9,57.1a1.55,1.55,0,0,0,2.2,0L58.87,45.33a1.55,1.55,0,0,1,2.2,0L72.58,56.84v4.44A1.32,1.32,0,0,1,71.12,62.6Z"/><circle class="cls-3" cx="46.74" cy="43.39" r="5.34"/></svg>