<svg id="Capa_1" data-name="Capa 1" xmlns="http://www.w3.org/2000/svg" viewBox="0 0 101.64 91.74"><defs><style>.cls-1,.cls-2{fill:none;stroke:#566567;}.cls-1{stroke-miterlimit:10;stroke-width:5.59px;}.cls-2{stroke-linecap:round;stroke-linejoin:round;stroke-width:2px;}</style></defs><title>iconosweb_Hover</title><rect class="cls-1" x="8.67" y="8.67" width="84.3" height="74.4"/><path class="cls-2" d="M79.71,23.48H23.36a3,3,0,0,1,0,4H79.71a3,3,0,0,1,0-4Z"/><circle class="cls-2" cx="21.07" cy="25.5" r="3.07"/><circle class="cls-2" cx="82.01" cy="25.5" r="3.07"/><rect class="cls-2" x="7.99" y="47.44" width="43.88" height="4.04" transform="translate(79.39 19.53) rotate(90)"/><rect class="cls-2" x="14.77" y="44.7" width="38.4" height="4.04" transform="translate(80.69 12.75) rotate(90)"/><rect class="cls-2" x="21.55" y="41.96" width="32.92" height="4.04" transform="translate(81.99 5.97) rotate(90)"/><rect class="cls-2" x="28.33" y="39.22" width="27.44" height="4.04" transform="translate(83.29 -0.81) rotate(90)"/><rect class="cls-2" x="35.99" y="60.44" width="4.04" height="5.48"/><rect class="cls-2" x="31.95" y="65.92" width="4.04" height="5.48"/><rect class="cls-2" x="40.03" y="54.96" width="4.04" height="5.48"/><rect class="cls-2" x="51.21" y="47.44" width="43.88" height="4.04" transform="translate(122.61 -23.69) rotate(90)"/><rect class="cls-2" x="49.91" y="44.7" width="38.4" height="4.04" transform="translate(115.83 -22.39) rotate(90)"/><rect class="cls-2" x="48.61" y="41.96" width="32.92" height="4.04" transform="translate(109.05 -21.09) rotate(90)"/><rect class="cls-2" x="47.31" y="39.22" width="27.44" height="4.04" transform="translate(102.27 -19.79) rotate(90)"/><rect class="cls-2" x="63.05" y="60.44" width="4.04" height="5.48" transform="translate(130.14 126.36) rotate(180)"/><rect class="cls-2" x="67.09" y="65.92" width="4.04" height="5.48" transform="translate(138.22 137.32) rotate(180)"/><rect class="cls-2" x="59.01" y="54.96" width="4.04" height="5.48" transform="translate(122.06 115.4) rotate(180)"/><path class="cls-2" d="M44.07,51.16S49.89,47,59,51.16"/></svg>