<svg id="Capa_1" data-name="Capa 1" xmlns="http://www.w3.org/2000/svg" viewBox="0 0 101.64 91.74"><defs><style>.cls-1,.cls-2{fill:none;stroke:#595959;}.cls-1{stroke-miterlimit:10;stroke-width:5.59px;}.cls-2{stroke-linecap:round;stroke-linejoin:round;stroke-width:2.52px;}</style></defs><title>iconosweb</title><rect class="cls-1" x="8.67" y="8.67" width="84.3" height="74.4"/><rect class="cls-2" x="7.27" y="47.44" width="43.88" height="4.04" transform="translate(78.67 20.25) rotate(90)"/><rect class="cls-2" x="14.05" y="44.7" width="38.4" height="4.04" transform="translate(79.97 13.47) rotate(90)"/><rect class="cls-2" x="20.83" y="41.96" width="32.92" height="4.04" transform="translate(81.27 6.69) rotate(90)"/><rect class="cls-2" x="27.61" y="39.22" width="27.44" height="4.04" transform="translate(82.57 -0.09) rotate(90)"/><rect class="cls-2" x="35.27" y="60.44" width="4.04" height="5.48"/><rect class="cls-2" x="31.23" y="65.92" width="4.04" height="5.48"/><rect class="cls-2" x="39.31" y="54.96" width="4.04" height="5.48"/><rect class="cls-2" x="50.49" y="47.44" width="43.88" height="4.04" transform="translate(121.89 -22.97) rotate(90)"/><rect class="cls-2" x="49.19" y="44.7" width="38.4" height="4.04" transform="translate(115.11 -21.67) rotate(90)"/><rect class="cls-2" x="47.89" y="41.96" width="32.92" height="4.04" transform="translate(108.33 -20.37) rotate(90)"/><rect class="cls-2" x="46.59" y="39.22" width="27.44" height="4.04" transform="translate(101.55 -19.07) rotate(90)"/><rect class="cls-2" x="62.33" y="60.44" width="4.04" height="5.48" transform="translate(128.7 126.36) rotate(180)"/><rect class="cls-2" x="66.37" y="65.92" width="4.04" height="5.48" transform="translate(136.78 137.32) rotate(180)"/><rect class="cls-2" x="58.29" y="54.96" width="4.04" height="5.48" transform="translate(120.62 115.4) rotate(180)"/><path class="cls-2" d="M79.71,23.48H23.36a3,3,0,0,1,0,4H79.71a3,3,0,0,1,0-4Z"/><circle class="cls-2" cx="21.07" cy="25.5" r="3.07"/><circle class="cls-2" cx="82.01" cy="25.5" r="3.07"/><path class="cls-2" d="M43.35,51.16s5.82-4.13,14.94,0"/></svg>