<svg id="Capa_1" data-name="Capa 1" xmlns="http://www.w3.org/2000/svg" viewBox="0 0 101.64 91.74"><defs><style>.cls-1,.cls-2,.cls-3{fill:none;stroke:#566567;}.cls-1{stroke-miterlimit:10;stroke-width:5.59px;}.cls-2,.cls-3{stroke-linecap:round;stroke-linejoin:round;}.cls-2{stroke-width:2px;}</style></defs><title>iconosweb_Hover</title><rect class="cls-1" x="8.67" y="8.67" width="84.3" height="74.4"/><polygon class="cls-2" points="58.57 50.96 41.54 50.96 40.13 31.11 59.98 31.11 58.57 50.96"/><polygon class="cls-2" points="55.02 46.82 45.1 46.82 44.27 35.25 55.84 35.25 55.02 46.82"/><rect class="cls-2" x="47.59" y="27.23" width="4.94" height="3.88"/><rect class="cls-2" x="47.59" y="50.96" width="4.94" height="3.88"/><rect class="cls-2" x="47.59" y="58.72" width="4.94" height="5.87"/><rect class="cls-2" x="40.86" y="54.84" width="18.39" height="3.88"/><rect class="cls-2" x="42.23" y="19.73" width="15.65" height="7.5" rx="1.75"/><rect class="cls-2" x="27.81" y="39.34" width="8.99" height="4.08" rx="1.62"/><line class="cls-3" x1="47.49" y1="37.68" x2="48.9" y2="39.09"/><line class="cls-3" x1="48.9" y1="37.68" x2="47.49" y2="39.09"/><line class="cls-3" x1="51.41" y1="37.68" x2="52.82" y2="39.09"/><line class="cls-3" x1="52.82" y1="37.68" x2="51.41" y2="39.09"/><line class="cls-3" x1="47.49" y1="22.78" x2="48.9" y2="24.19"/><line class="cls-3" x1="48.9" y1="22.78" x2="47.49" y2="24.19"/><line class="cls-3" x1="51.41" y1="22.78" x2="52.82" y2="24.19"/><line class="cls-3" x1="52.82" y1="22.78" x2="51.41" y2="24.19"/><line class="cls-3" x1="47.49" y1="42.13" x2="48.9" y2="43.54"/><line class="cls-3" x1="48.9" y1="42.13" x2="47.49" y2="43.54"/><line class="cls-3" x1="51.41" y1="42.13" x2="52.82" y2="43.54"/><line class="cls-3" x1="52.82" y1="42.13" x2="51.41" y2="43.54"/><polyline class="cls-2" points="40.86 56.78 35.59 56.78 32.73 43.54"/><rect class="cls-2" x="63.31" y="39.34" width="8.99" height="4.08" rx="1.62" transform="translate(135.62 82.76) rotate(-180)"/><polyline class="cls-2" points="59.25 56.78 64.53 56.78 67.38 43.54"/><line class="cls-2" x1="50.06" y1="64.58" x2="50.06" y2="68.32"/><polyline class="cls-2" points="52.53 64.58 57.4 64.58 57.4 68.32"/><polyline class="cls-2" points="47.59 64.58 42.71 64.58 42.71 68.32"/><circle class="cls-2" cx="50.06" cy="70.19" r="1.82"/><circle class="cls-2" cx="42.71" cy="70.19" r="1.82"/><circle class="cls-2" cx="57.4" cy="70.19" r="1.82"/></svg>